<svg width="180" height="86" viewBox="0 0 180 86" fill="none" xmlns="http://www.w3.org/2000/svg">
<rect x="1.04651" y="1.04651" width="8.37209" height="8.37209" fill="#8C0250"/>
<rect x="1.04651" y="38.7209" width="8.37209" height="8.37209" fill="#E5B80B"/>
<rect x="1.04651" y="57.5581" width="8.37209" height="8.37209" fill="#E5B80B"/>
<rect x="1.04651" y="48.1395" width="8.37209" height="8.37209" fill="#E5B80B"/>
<rect x="1.04651" y="29.3023" width="8.37209" height="8.37209" fill="#E5B80B"/>
<rect x="1.04651" y="19.8837" width="8.37209" height="8.37209" fill="#E5B80B"/>
<rect x="1.04651" y="10.4651" width="8.37209" height="8.37209" fill="#E5B80B"/>
<rect x="10.4651" y="38.7209" width="8.37209" height="8.37209" fill="#FF6600"/>
<rect x="10.4651" y="57.5581" width="8.37209" height="8.37209" fill="#FF6600"/>
<rect x="10.4651" y="48.1395" width="8.37209" height="8.37209" fill="#FF6600"/>
<rect x="10.4651" y="29.3023" width="8.37209" height="8.37209" fill="#FF6600"/>
<rect x="10.4651" y="19.8837" width="8.37209" height="8.37209" fill="#FF6600"/>
<rect x="10.4651" y="10.4651" width="8.37209" height="8.37209" fill="#FF6600"/>
<rect x="161.163" y="10.4651" width="8.37209" height="8.37209" fill="#304EE6"/>
<rect x="161.163" y="48.1395" width="8.37209" height="8.37209" fill="#304EE6"/>
<rect x="161.163" y="57.5581" width="8.37209" height="8.37209" fill="#304EE6"/>
<rect x="161.163" y="38.7209" width="8.37209" height="8.37209" fill="#304EE6"/>
<rect x="161.163" y="29.3023" width="8.37209" height="8.37209" fill="#304EE6"/>
<rect x="161.163" y="19.8837" width="8.37209" height="8.37209" fill="#304EE6"/>
<rect x="170.581" y="1.04651" width="8.37209" height="8.37209" fill="#9400D3"/>
<rect x="170.581" y="38.7209" width="8.37209" height="8.37209" fill="#9400D3"/>
<rect x="170.581" y="57.5581" width="8.37209" height="8.37209" fill="#9400D3"/>
<rect x="170.581" y="48.1395" width="8.37209" height="8.37209" fill="#9400D3"/>
<rect x="170.581" y="29.3023" width="8.37209" height="8.37209" fill="#9400D3"/>
<rect x="170.581" y="19.8837" width="8.37209" height="8.37209" fill="#9400D3"/>
<rect x="170.581" y="10.4651" width="8.37209" height="8.37209" fill="#9400D3"/>
<rect x="142.326" y="10.4651" width="8.37209" height="8.37209" fill="#008000"/>
<rect x="142.326" y="19.8837" width="8.37209" height="8.37209" fill="#008000"/>
<rect x="151.744" y="10.4651" width="8.37209" height="8.37209" fill="#008000"/>
<rect x="151.744" y="29.3023" width="8.37209" height="8.37209" fill="#008000"/>
<rect x="151.744" y="19.8837" width="8.37209" height="8.37209" fill="#008000"/>
<rect x="132.907" y="10.4651" width="8.37209" height="8.37209" fill="#008000"/>
<rect x="123.488" y="48.1395" width="8.37209" height="8.37209" fill="#FF007F"/>
<rect x="123.488" y="38.7209" width="8.37209" height="8.37209" fill="#FF007F"/>
<rect x="123.488" y="29.3023" width="8.37209" height="8.37209" fill="#FF007F"/>
<rect x="123.488" y="19.8837" width="8.37209" height="8.37209" fill="#FF007F"/>
<rect x="142.326" y="48.1395" width="8.37209" height="8.37209" fill="#FF007F"/>
<rect x="151.744" y="48.1395" width="8.37209" height="8.37209" fill="#FF007F"/>
<rect x="132.907" y="48.1395" width="8.37209" height="8.37209" fill="#FF007F"/>
<rect x="132.907" y="57.5581" width="8.37209" height="8.37209" fill="#FF007F"/>
<rect x="132.907" y="38.7209" width="8.37209" height="8.37209" fill="#FF007F"/>
<rect x="123.488" y="57.5581" width="8.37209" height="8.37209" fill="#FF007F"/>
<rect x="142.326" y="57.5581" width="8.37209" height="8.37209" fill="#FF007F"/>
<rect x="151.744" y="57.5581" width="8.37209" height="8.37209" fill="#FF007F"/>
<rect x="123.488" y="10.4651" width="8.37209" height="8.37209" fill="#8DB600"/>
<rect x="142.326" y="38.7209" width="8.37209" height="8.37209" fill="#8DB600"/>
<rect x="142.326" y="29.3023" width="8.37209" height="8.37209" fill="#8DB600"/>
<rect x="151.744" y="38.7209" width="8.37209" height="8.37209" fill="#8DB600"/>
<rect x="132.907" y="29.3023" width="8.37209" height="8.37209" fill="#8DB600"/>
<rect x="132.907" y="19.8837" width="8.37209" height="8.37209" fill="#8DB600"/>
<rect x="29.3023" y="66.9767" width="8.37209" height="8.37209" fill="#054F77"/>
<rect x="38.7209" y="66.9767" width="8.37209" height="8.37209" fill="#054F77"/>
<rect x="48.1395" y="66.9767" width="8.37209" height="8.37209" fill="#054F77"/>
<rect x="66.9767" y="66.9767" width="8.37209" height="8.37209" fill="#054F77"/>
<rect x="76.3953" y="66.9767" width="8.37209" height="8.37209" fill="#054F77"/>
<rect x="85.8139" y="66.9767" width="8.37209" height="8.37209" fill="#054F77"/>
<rect x="95.2326" y="66.9767" width="8.37209" height="8.37209" fill="#054F77"/>
<rect x="104.651" y="66.9767" width="8.37209" height="8.37209" fill="#054F77"/>
<rect x="114.07" y="66.9767" width="8.37209" height="8.37209" fill="#054F77"/>
<rect x="123.488" y="66.9767" width="8.37209" height="8.37209" fill="#054F77"/>
<rect x="142.326" y="66.9767" width="8.37209" height="8.37209" fill="#054F77"/>
<rect x="151.744" y="66.9767" width="8.37209" height="8.37209" fill="#054F77"/>
<rect x="161.163" y="66.9767" width="8.37209" height="8.37209" fill="#054F77"/>
<rect x="132.907" y="66.9767" width="8.37209" height="8.37209" fill="#054F77"/>
<rect x="57.5581" y="66.9767" width="8.37209" height="8.37209" fill="#054F77"/>
<rect x="19.8837" y="66.9767" width="8.37209" height="8.37209" fill="#054F77"/>
<path d="M123.488 76.3954H131.86V84.7674H123.488V76.3954Z" fill="#4169E1"/>
<rect x="29.3023" y="76.3954" width="8.37209" height="8.37209" fill="#4169E1"/>
<rect x="38.7209" y="76.3954" width="8.37209" height="8.37209" fill="#4169E1"/>
<rect x="48.1395" y="76.3954" width="8.37209" height="8.37209" fill="#4169E1"/>
<rect x="66.9767" y="76.3954" width="8.37209" height="8.37209" fill="#4169E1"/>
<rect x="76.3953" y="76.3954" width="8.37209" height="8.37209" fill="#4169E1"/>
<rect x="85.8139" y="76.3954" width="8.37209" height="8.37209" fill="#4169E1"/>
<rect x="95.2326" y="76.3954" width="8.37209" height="8.37209" fill="#4169E1"/>
<rect x="104.651" y="76.3954" width="8.37209" height="8.37209" fill="#4169E1"/>
<rect x="114.07" y="76.3954" width="8.37209" height="8.37209" fill="#4169E1"/>
<path d="M142.326 76.3954H150.698V84.7674H142.326V76.3954Z" fill="#4169E1"/>
<path d="M151.744 76.3954H160.116V84.7674H151.744V76.3954Z" fill="#4169E1"/>
<path d="M161.163 76.3954H169.535V84.7674H161.163V76.3954Z" fill="#4169E1"/>
<path d="M132.907 76.3954H141.279V84.7674H132.907V76.3954Z" fill="#4169E1"/>
<rect x="57.5581" y="76.3954" width="8.37209" height="8.37209" fill="#4169E1"/>
<rect x="19.8837" y="76.3954" width="8.37209" height="8.37209" fill="#4169E1"/>
<rect x="29.3023" y="29.3023" width="8.37209" height="8.37209" fill="#970700"/>
<rect x="29.3023" y="57.5581" width="8.37209" height="8.37209" fill="#970700"/>
<rect x="29.3023" y="48.1395" width="8.37209" height="8.37209" fill="#970700"/>
<rect x="29.3023" y="38.7209" width="8.37209" height="8.37209" fill="#970700"/>
<rect x="38.7209" y="29.3023" width="8.37209" height="8.37209" fill="#970700"/>
<rect x="38.7209" y="57.5581" width="8.37209" height="8.37209" fill="#970700"/>
<rect x="38.7209" y="48.1395" width="8.37209" height="8.37209" fill="#970700"/>
<rect x="38.7209" y="38.7209" width="8.37209" height="8.37209" fill="#970700"/>
<rect x="48.1395" y="29.3023" width="8.37209" height="8.37209" fill="#970700"/>
<rect x="48.1395" y="57.5581" width="8.37209" height="8.37209" fill="#970700"/>
<rect x="48.1395" y="48.1395" width="8.37209" height="8.37209" fill="#970700"/>
<rect x="48.1395" y="38.7209" width="8.37209" height="8.37209" fill="#970700"/>
<rect x="66.9767" y="29.3023" width="8.37209" height="8.37209" fill="#970700"/>
<rect x="66.9767" y="57.5581" width="8.37209" height="8.37209" fill="#970700"/>
<rect x="66.9767" y="48.1395" width="8.37209" height="8.37209" fill="#970700"/>
<rect x="66.9767" y="38.7209" width="8.37209" height="8.37209" fill="#970700"/>
<rect x="76.3953" y="29.3023" width="8.37209" height="8.37209" fill="#970700"/>
<rect x="76.3953" y="57.5581" width="8.37209" height="8.37209" fill="#970700"/>
<rect x="76.3953" y="48.1395" width="8.37209" height="8.37209" fill="#970700"/>
<rect x="76.3953" y="38.7209" width="8.37209" height="8.37209" fill="#970700"/>
<rect x="85.8139" y="29.3023" width="8.37209" height="8.37209" fill="#970700"/>
<rect x="85.8139" y="57.5581" width="8.37209" height="8.37209" fill="#970700"/>
<rect x="85.8139" y="48.1395" width="8.37209" height="8.37209" fill="#970700"/>
<rect x="85.8139" y="38.7209" width="8.37209" height="8.37209" fill="#970700"/>
<rect x="95.2326" y="29.3023" width="8.37209" height="8.37209" fill="#970700"/>
<rect x="95.2326" y="57.5581" width="8.37209" height="8.37209" fill="#970700"/>
<rect x="95.2326" y="48.1395" width="8.37209" height="8.37209" fill="#970700"/>
<rect x="95.2326" y="38.7209" width="8.37209" height="8.37209" fill="#970700"/>
<rect x="104.651" y="29.3023" width="8.37209" height="8.37209" fill="#970700"/>
<rect x="104.651" y="57.5581" width="8.37209" height="8.37209" fill="#970700"/>
<rect x="104.651" y="48.1395" width="8.37209" height="8.37209" fill="#970700"/>
<rect x="104.651" y="38.7209" width="8.37209" height="8.37209" fill="#970700"/>
<rect x="114.07" y="29.3023" width="8.37209" height="8.37209" fill="#970700"/>
<rect x="114.07" y="57.5581" width="8.37209" height="8.37209" fill="#970700"/>
<rect x="114.07" y="48.1395" width="8.37209" height="8.37209" fill="#970700"/>
<rect x="114.07" y="38.7209" width="8.37209" height="8.37209" fill="#970700"/>
<rect x="57.5581" y="29.3023" width="8.37209" height="8.37209" fill="#970700"/>
<rect x="57.5581" y="57.5581" width="8.37209" height="8.37209" fill="#970700"/>
<rect x="57.5581" y="48.1395" width="8.37209" height="8.37209" fill="#970700"/>
<rect x="57.5581" y="38.7209" width="8.37209" height="8.37209" fill="#970700"/>
<rect x="19.8837" y="29.3023" width="8.37209" height="8.37209" fill="#970700"/>
<rect x="19.8837" y="57.5581" width="8.37209" height="8.37209" fill="#970700"/>
<rect x="19.8837" y="48.1395" width="8.37209" height="8.37209" fill="#970700"/>
<rect x="19.8837" y="38.7209" width="8.37209" height="8.37209" fill="#970700"/>
</svg>
