<svg width="115" height="88" viewBox="0 0 115 88" fill="none" xmlns="http://www.w3.org/2000/svg">
<path d="M27.2368 34.8026C27.2368 42.3239 21.1397 48.421 13.6184 48.421C6.09717 48.421 -6.16597e-06 42.3239 -6.16597e-06 34.8026C-6.16597e-06 27.2814 6.09717 21.1842 13.6184 21.1842C21.1397 21.1842 27.2368 27.2814 27.2368 34.8026Z" fill="#800000"/>
<path d="M115 34.8026C115 42.3239 108.903 48.421 101.382 48.421C93.8603 48.421 87.7631 42.3239 87.7631 34.8026C87.7631 27.2814 93.8603 21.1842 101.382 21.1842C108.903 21.1842 115 27.2814 115 34.8026Z" fill="#800000"/>
<path d="M18.5423 27.9389C16.423 28.5622 15.2102 30.7856 15.8335 32.905C16.4569 35.0244 18.6803 36.2372 20.7997 35.6138L18.5423 27.9389ZM20.7997 35.6138L46.5233 28.048L44.266 20.3731L18.5423 27.9389L20.7997 35.6138Z" fill="white"/>
<path d="M91.2242 35.6282C93.3515 36.2239 95.5589 34.9822 96.1546 32.8549C96.7502 30.7276 95.5085 28.5201 93.3812 27.9245L91.2242 35.6282ZM93.3812 27.9245L55.5523 17.3324L53.3952 25.0361L91.2242 35.6282L93.3812 27.9245Z" fill="white"/>
<ellipse cx="57.5002" cy="24.2105" rx="24.2105" ry="24.2105" fill="#008000"/>
<path d="M61.4836 32.1385C61.6836 29.9384 60.0622 27.9928 57.8621 27.7928C55.6621 27.5928 53.7164 29.2141 53.5164 31.4142L61.4836 32.1385ZM53.5164 31.4142L50.4901 64.7037L58.4573 65.428L61.4836 32.1385L53.5164 31.4142Z" fill="white"/>
<circle cx="54.4738" cy="71.1185" r="16.6447" fill="#800000"/>
</svg>
