<svg width="84" height="112" viewBox="0 0 84 112" fill="none" xmlns="http://www.w3.org/2000/svg">
<path d="M20.9615 19.0314C20.9637 19.3075 21.1893 19.5296 21.4655 19.5274L25.9653 19.4918C26.2414 19.4896 26.4635 19.264 26.4613 18.9879C26.4592 18.7118 26.2335 18.4897 25.9574 18.4919L21.9575 18.5235L21.9259 14.5236C21.9237 14.2475 21.6981 14.0254 21.4219 14.0276C21.1458 14.0298 20.9237 14.2554 20.9259 14.5315L20.9615 19.0314ZM38.8496 0.649254L21.1052 18.6767L21.8178 19.3782L39.5623 1.35075L38.8496 0.649254Z" fill="black"/>
<path d="M21.1617 33.1067C21.1691 33.3827 21.3989 33.6005 21.6749 33.5931L26.1733 33.4726C26.4494 33.4652 26.6671 33.2354 26.6597 32.9594C26.6523 32.6833 26.4226 32.4655 26.1465 32.4729L22.148 32.5801L22.0408 28.5815C22.0334 28.3055 21.8037 28.0877 21.5276 28.0951C21.2516 28.1025 21.0338 28.3322 21.0412 28.6083L21.1617 33.1067ZM38.8431 14.2389L21.2986 32.7493L22.0244 33.4372L39.5689 14.9268L38.8431 14.2389Z" fill="black"/>
<path d="M20.9167 45.872C20.9167 46.1481 21.1405 46.372 21.4167 46.372L25.9167 46.372C26.1928 46.372 26.4167 46.1481 26.4167 45.872C26.4167 45.5958 26.1928 45.372 25.9167 45.372L21.9167 45.372L21.9167 41.372C21.9167 41.0958 21.6928 40.872 21.4167 40.872C21.1405 40.872 20.9167 41.0958 20.9167 41.372L20.9167 45.872ZM52.1142 14.4674L21.0631 45.5184L21.7702 46.2255L52.8213 15.1745L52.1142 14.4674Z" fill="black"/>
<path d="M20.9167 61.1526C20.9167 61.4288 21.1405 61.6526 21.4167 61.6526L25.9167 61.6526C26.1928 61.6526 26.4167 61.4287 26.4167 61.1526C26.4167 60.8765 26.1928 60.6526 25.9167 60.6526L21.9167 60.6526L21.9167 56.6526C21.9167 56.3765 21.6928 56.1526 21.4167 56.1526C21.1405 56.1526 20.9167 56.3765 20.9167 56.6526L20.9167 61.1526ZM52.1142 29.748L21.0631 60.7991L21.7702 61.5062L52.8213 30.4551L52.1142 29.748Z" fill="black"/>
<path d="M21.0781 76.596C21.0782 76.8721 21.302 77.096 21.5781 77.096L26.0781 77.096C26.3543 77.096 26.5781 76.8721 26.5781 76.596C26.5781 76.3199 26.3543 76.096 26.0781 76.096L22.0781 76.096L22.0781 72.096C22.0781 71.8199 21.8543 71.596 21.5781 71.596C21.302 71.596 21.0781 71.8199 21.0781 72.096L21.0781 76.596ZM67.554 29.913L21.2246 76.2424L21.9317 76.9496L68.2611 30.6201L67.554 29.913Z" fill="black"/>
<path d="M21.0781 91.3106C21.0782 91.5867 21.302 91.8106 21.5781 91.8106L26.0781 91.8106C26.3543 91.8106 26.5781 91.5867 26.5781 91.3106C26.5781 91.0345 26.3543 90.8106 26.0781 90.8106L22.0781 90.8106L22.0781 86.8106C22.0781 86.5345 21.8543 86.3106 21.5781 86.3106C21.302 86.3106 21.0781 86.5345 21.0781 86.8106L21.0781 91.3106ZM67.554 44.6276L21.2246 90.957L21.9317 91.6642L68.2611 45.3347L67.554 44.6276Z" fill="black"/>
<path d="M21.1997 106.713C21.1997 106.989 21.4236 107.213 21.6997 107.213L26.1997 107.213C26.4759 107.213 26.6997 106.989 26.6997 106.713C26.6997 106.437 26.4759 106.213 26.1997 106.213L22.1997 106.213L22.1997 102.213C22.1997 101.937 21.9759 101.713 21.6997 101.713C21.4236 101.713 21.1997 101.937 21.1997 102.213L21.1997 106.713ZM82.3899 45.3158L21.3462 106.36L22.0533 107.067L83.097 46.023L82.3899 45.3158Z" fill="black"/>
<path d="M36.4151 107.385C36.4151 107.661 36.639 107.885 36.9151 107.885L41.4151 107.885C41.6913 107.885 41.9151 107.661 41.9151 107.385C41.9151 107.109 41.6913 106.885 41.4151 106.885L37.4151 106.885L37.4151 102.885C37.4151 102.609 37.1913 102.385 36.9151 102.385C36.639 102.385 36.4151 102.609 36.4151 102.885L36.4151 107.385ZM81.8507 61.7422L36.5616 107.031L37.2687 107.738L82.5578 62.4493L81.8507 61.7422Z" fill="black"/>
<path d="M4.92168 13.2907V6.74523H5.7143V9.99238H5.791L8.73134 6.74523H9.76685L7.01828 9.69835L9.76685 13.2907H8.80805L6.53248 10.2481L5.7143 11.1685V13.2907H4.92168ZM5.32598 29.2907V22.7452H6.11859V28.5876H9.16121V29.2907H5.32598ZM3.85381 38.7452H4.79984L7.02427 44.1785H7.10097L9.3254 38.7452H10.2714V45.2907H9.52995V40.3177H9.46603L7.42057 45.2907H6.70467L4.65921 40.3177H4.59529V45.2907H3.85381V38.7452ZM9.65939 54.7452V61.2907H8.89234L5.32558 56.1515H5.26166V61.2907H4.46905V54.7452H5.23609L8.81564 59.8972H8.87956V54.7452H9.65939ZM9.95222 74.018C9.95222 74.7083 9.82758 75.3049 9.57829 75.8077C9.329 76.3106 8.98703 76.6984 8.55237 76.9711C8.11771 77.2438 7.62126 77.3802 7.06302 77.3802C6.50478 77.3802 6.00833 77.2438 5.57367 76.9711C5.13901 76.6984 4.79704 76.3106 4.54775 75.8077C4.29846 75.3049 4.17381 74.7083 4.17381 74.018C4.17381 73.3276 4.29846 72.731 4.54775 72.2282C4.79704 71.7253 5.13901 71.3376 5.57367 71.0648C6.00833 70.7921 6.50478 70.6557 7.06302 70.6557C7.62126 70.6557 8.11771 70.7921 8.55237 71.0648C8.98703 71.3376 9.329 71.7253 9.57829 72.2282C9.82758 72.731 9.95222 73.3276 9.95222 74.018ZM9.18518 74.018C9.18518 73.4512 9.09036 72.9729 8.90073 72.5829C8.71323 72.193 8.45862 71.8979 8.13688 71.6976C7.81728 71.4974 7.45933 71.3972 7.06302 71.3972C6.66671 71.3972 6.30769 71.4974 5.98596 71.6976C5.66636 71.8979 5.41174 72.193 5.22211 72.5829C5.03461 72.9729 4.94086 73.4512 4.94086 74.018C4.94086 74.5847 5.03461 75.0631 5.22211 75.453C5.41174 75.8429 5.66636 76.138 5.98596 76.3383C6.30769 76.5385 6.66671 76.6387 7.06302 76.6387C7.45933 76.6387 7.81728 76.5385 8.13688 76.3383C8.45862 76.138 8.71323 75.8429 8.90073 75.453C9.09036 75.0631 9.18518 74.5847 9.18518 74.018ZM5.00079 93.2907V86.7452H7.21243C7.72593 86.7452 8.14567 86.8379 8.47167 87.0233C8.79979 87.2065 9.04269 87.4547 9.20036 87.768C9.35803 88.0812 9.43687 88.4306 9.43687 88.8162C9.43687 89.2019 9.35803 89.5524 9.20036 89.8677C9.04482 90.1831 8.80405 90.4345 8.47806 90.622C8.15206 90.8074 7.73445 90.9001 7.22522 90.9001H5.63999V90.1969H7.19965C7.55121 90.1969 7.83353 90.1362 8.0466 90.0148C8.25966 89.8933 8.41414 89.7292 8.51002 89.5226C8.60803 89.3138 8.65704 89.0783 8.65704 88.8162C8.65704 88.5542 8.60803 88.3198 8.51002 88.1131C8.41414 87.9064 8.2586 87.7445 8.0434 87.6273C7.8282 87.508 7.54269 87.4484 7.18687 87.4484H5.7934V93.2907H5.00079ZM6.80734 107.245H7.67666L8.40535 108.204L8.59711 108.46L9.68376 109.904H8.81444L8.09853 108.946L7.91955 108.703L6.80734 107.245ZM9.95222 106.018C9.95222 106.708 9.82758 107.305 9.57829 107.808C9.329 108.311 8.98703 108.698 8.55237 108.971C8.11771 109.244 7.62126 109.38 7.06302 109.38C6.50478 109.38 6.00833 109.244 5.57367 108.971C5.13901 108.698 4.79704 108.311 4.54775 107.808C4.29846 107.305 4.17381 106.708 4.17381 106.018C4.17381 105.328 4.29846 104.731 4.54775 104.228C4.79704 103.725 5.13901 103.338 5.57367 103.065C6.00833 102.792 6.50478 102.656 7.06302 102.656C7.62126 102.656 8.11771 102.792 8.55237 103.065C8.98703 103.338 9.329 103.725 9.57829 104.228C9.82758 104.731 9.95222 105.328 9.95222 106.018ZM9.18518 106.018C9.18518 105.451 9.09036 104.973 8.90073 104.583C8.71323 104.193 8.45862 103.898 8.13688 103.698C7.81728 103.497 7.45933 103.397 7.06302 103.397C6.66671 103.397 6.30769 103.497 5.98596 103.698C5.66636 103.898 5.41174 104.193 5.22211 104.583C5.03461 104.973 4.94086 105.451 4.94086 106.018C4.94086 106.585 5.03461 107.063 5.22211 107.453C5.41174 107.843 5.66636 108.138 5.98596 108.338C6.30769 108.539 6.66671 108.639 7.06302 108.639C7.45933 108.639 7.81728 108.539 8.13688 108.338C8.45862 108.138 8.71323 107.843 8.90073 107.453C9.09036 107.063 9.18518 106.585 9.18518 106.018Z" fill="black"/>
</svg>
