<svg width="182" height="146" viewBox="0 0 182 146" fill="none" xmlns="http://www.w3.org/2000/svg">
<path d="M46.5526 52.6654C46.5526 56.267 43.7426 59.1867 40.2763 59.1867C36.81 59.1867 34 56.267 34 52.6654C34 49.0638 36.81 46.1442 40.2763 46.1442C43.7426 46.1442 46.5526 49.0638 46.5526 52.6654Z" fill="#800000"/>
<path d="M42.521 49.2919C41.4647 49.6147 40.8522 50.738 41.1531 51.8008C41.4539 52.8636 42.5542 53.4635 43.6105 53.1407L42.521 49.2919ZM43.0658 51.2163L43.6105 53.1407L55.4658 49.5177L54.921 47.5934L54.3763 45.669L42.521 49.2919L43.0658 51.2163Z" fill="white"/>
<ellipse cx="61.1579" cy="47.5933" rx="11.1579" ry="11.5933" fill="#00089F"/>
<path d="M71.3287 52.5052C70.5032 51.7713 69.239 51.8457 68.5052 52.6713C67.7713 53.4968 67.8457 54.761 68.6713 55.4948L71.3287 52.5052ZM70 54L68.6713 55.4948L77.6713 63.4948L79 62L80.3287 60.5052L71.3287 52.5052L70 54Z" fill="white"/>
<ellipse cx="79.6711" cy="62.9704" rx="7.67105" ry="7.97042" fill="#800000"/>
<path d="M62 19.5C81.6596 19.5 97.5 35.2232 97.5 54.5C97.5 73.7768 81.6596 89.5 62 89.5C42.3404 89.5 26.5 73.7768 26.5 54.5C26.5 35.2232 42.3404 19.5 62 19.5Z" stroke="white" stroke-width="9"/>
<rect x="87" y="83.4683" width="10" height="16" transform="rotate(-48.3168 87 83.4683)" fill="white"/>
<rect x="90" y="91.6648" width="17.9151" height="66.0003" transform="rotate(-49.7074 90 91.6648)" fill="white"/>
</svg>
