<svg width="400" height="117" viewBox="0 0 400 117" fill="none" xmlns="http://www.w3.org/2000/svg">
<path d="M302 9H398V7H302V9ZM399 10V106H401V10H399ZM398 107H302V109H398V107ZM301 106V10H299V106H301ZM302 107C301.448 107 301 106.552 301 106H299C299 107.657 300.343 109 302 109V107ZM399 106C399 106.552 398.552 107 398 107V109C399.657 109 401 107.657 401 106H399ZM398 9C398.552 9 399 9.44771 399 10H401C401 8.34315 399.657 7 398 7V9ZM302 7C300.343 7 299 8.34314 299 10H301C301 9.44771 301.448 9 302 9V7Z" fill="white" fill-opacity="0.1"/>
<rect x="300" y="8" width="100" height="100" fill="white"/>
<rect x="301" y="9" width="98" height="98" fill="#C2BC00"/>
<path d="M351.362 29.48V73H343.042L322.882 43.88V73H314.626V29.48H322.882L343.042 58.536V29.48H351.362ZM366.926 63.72C366.926 64.616 367.289 65.4267 368.014 66.152C368.739 66.8347 369.699 67.176 370.894 67.176C372.046 67.176 373.198 66.92 374.35 66.408C375.545 65.896 376.675 65.128 377.742 64.104V59.368H371.47C370.019 59.368 368.889 59.816 368.078 60.712C367.31 61.608 366.926 62.6107 366.926 63.72ZM371.022 73.768C367.225 73.768 364.409 72.8507 362.574 71.016C360.739 69.1387 359.822 66.7067 359.822 63.72C359.822 60.52 360.91 58.0667 363.086 56.36C365.262 54.6533 368.099 53.8 371.598 53.8H377.678C377.635 52.2213 377.166 51.0053 376.27 50.152C375.417 49.256 374.222 48.808 372.686 48.808C371.235 48.808 369.657 49.0213 367.95 49.448C366.243 49.832 364.814 50.3013 363.662 50.856L361.422 43.944C362.617 43.1333 364.43 42.472 366.862 41.96C369.337 41.4053 371.235 41.128 372.558 41.128C376.27 41.128 379.449 42.216 382.094 44.392C384.739 46.5253 386.062 49.256 386.062 52.584V73H381.774L379.726 70.376C378.574 71.272 377.209 72.0613 375.63 72.744C374.094 73.4267 372.558 73.768 371.022 73.768Z" fill="white"/>
<path d="M305.448 18.92H306.756V14.996L306.132 15.356L305.4 14.3L307.272 13.208H308.316V18.92H309.24L309.372 20H305.568L305.448 18.92ZM310.792 18.92H312.1V14.996L311.476 15.356L310.744 14.3L312.616 13.208H313.66V18.92H314.584L314.716 20H310.912L310.792 18.92Z" fill="white"/>
<path d="M393.825 12.368C394.438 12.368 394.865 12.52 395.105 12.824C395.345 13.1227 395.465 13.4533 395.465 13.816C395.465 14.136 395.374 14.4293 395.193 14.696C395.017 14.9627 394.734 15.256 394.345 15.576L393.585 16.208H395.561L395.697 17H392.217V16.304L393.785 14.928C394.083 14.6667 394.283 14.4587 394.385 14.304C394.486 14.144 394.537 13.9813 394.537 13.816C394.537 13.6453 394.473 13.5013 394.345 13.384C394.217 13.2667 394.038 13.208 393.809 13.208C393.611 13.208 393.385 13.28 393.129 13.424C392.873 13.568 392.737 13.6427 392.721 13.648L392.273 12.944C392.422 12.8267 392.625 12.7013 392.881 12.568C393.137 12.4347 393.451 12.368 393.825 12.368ZM395.855 24.52C395.855 24.952 395.689 25.3253 395.359 25.64C395.033 25.9493 394.583 26.104 394.007 26.104C393.42 26.104 392.961 25.9493 392.631 25.64C392.305 25.3253 392.143 24.952 392.143 24.52C392.143 24.248 392.236 23.992 392.423 23.752C392.609 23.512 392.815 23.3547 393.039 23.28C392.836 23.1893 392.671 23.0533 392.543 22.872C392.415 22.6853 392.351 22.48 392.351 22.256C392.351 21.8773 392.497 21.5493 392.791 21.272C393.089 20.9947 393.495 20.856 394.007 20.856C394.513 20.856 394.913 20.9947 395.207 21.272C395.505 21.5493 395.655 21.8773 395.655 22.256C395.655 22.48 395.588 22.6853 395.455 22.872C395.327 23.0533 395.161 23.1893 394.959 23.28C395.183 23.3547 395.388 23.512 395.575 23.752C395.761 23.992 395.855 24.248 395.855 24.52ZM393.279 22.272C393.279 22.448 393.34 22.592 393.463 22.704C393.591 22.8107 393.772 22.8827 394.007 22.92C394.241 22.8827 394.417 22.808 394.535 22.696C394.657 22.584 394.719 22.4373 394.719 22.256C394.719 22.1067 394.649 21.9787 394.511 21.872C394.372 21.76 394.199 21.704 393.991 21.704C393.793 21.704 393.625 21.76 393.487 21.872C393.348 21.984 393.279 22.1173 393.279 22.272ZM393.079 24.536C393.079 24.7653 393.172 24.944 393.359 25.072C393.551 25.2 393.764 25.264 393.999 25.264C394.228 25.264 394.439 25.2 394.631 25.072C394.828 24.944 394.927 24.7653 394.927 24.536C394.927 24.344 394.847 24.168 394.687 24.008C394.532 23.848 394.305 23.744 394.007 23.696C393.697 23.744 393.465 23.848 393.311 24.008C393.156 24.168 393.079 24.344 393.079 24.536ZM392.747 34.28H393.619V31.664L393.203 31.904L392.715 31.2L393.963 30.472H394.659V34.28H395.275L395.363 35H392.827L392.747 34.28Z" fill="white"/>
<path d="M339.141 86.65C339.327 86.746 339.564 86.842 339.852 86.938C340.14 87.034 340.413 87.082 340.671 87.082C341.037 87.082 341.31 87.025 341.49 86.911C341.676 86.797 341.769 86.632 341.769 86.416C341.769 86.212 341.646 86.032 341.4 85.876C341.16 85.714 340.893 85.558 340.599 85.408C340.167 85.186 339.753 84.928 339.357 84.634C338.967 84.334 338.772 83.914 338.772 83.374C338.772 82.912 338.955 82.525 339.321 82.213C339.687 81.895 340.206 81.736 340.878 81.736C341.184 81.736 341.49 81.784 341.796 81.88C342.102 81.976 342.372 82.081 342.606 82.195L342.219 83.131C342.033 83.041 341.832 82.957 341.616 82.879C341.4 82.795 341.16 82.753 340.896 82.753C340.638 82.753 340.419 82.804 340.239 82.906C340.065 83.008 339.978 83.164 339.978 83.374C339.978 83.596 340.083 83.782 340.293 83.932C340.509 84.076 340.767 84.223 341.067 84.373L341.13 84.409C341.562 84.631 341.976 84.895 342.372 85.201C342.774 85.501 342.975 85.912 342.975 86.434C342.975 86.92 342.777 87.322 342.381 87.64C341.991 87.958 341.427 88.117 340.689 88.117C340.431 88.117 340.098 88.06 339.69 87.946C339.288 87.832 339.018 87.715 338.88 87.595L339.141 86.65ZM345.844 81.223H347.041L346.195 82.699H345.304L345.844 81.223ZM345.934 88.108C345.244 88.108 344.704 87.901 344.314 87.487C343.93 87.067 343.738 86.506 343.738 85.804C343.738 85.108 343.939 84.553 344.341 84.139C344.749 83.725 345.304 83.518 346.006 83.518C346.732 83.518 347.293 83.734 347.689 84.166C348.091 84.592 348.292 85.153 348.292 85.849C348.292 86.545 348.076 87.097 347.644 87.505C347.212 87.907 346.642 88.108 345.934 88.108ZM347.086 85.849C347.086 85.435 346.993 85.111 346.807 84.877C346.627 84.637 346.369 84.517 346.033 84.517C345.691 84.517 345.424 84.622 345.232 84.832C345.04 85.042 344.944 85.363 344.944 85.795C344.944 86.227 345.025 86.554 345.187 86.776C345.355 86.998 345.61 87.109 345.952 87.109C346.288 87.109 346.561 87.01 346.771 86.812C346.981 86.608 347.086 86.287 347.086 85.849ZM351.341 84.463C350.933 84.463 350.648 84.607 350.486 84.895C350.33 85.183 350.252 85.48 350.252 85.786C350.252 86.128 350.324 86.434 350.468 86.704C350.612 86.974 350.903 87.109 351.341 87.109C351.479 87.109 351.623 87.079 351.773 87.019C351.929 86.953 352.073 86.878 352.205 86.794V84.778C352.073 84.688 351.929 84.613 351.773 84.553C351.623 84.493 351.479 84.463 351.341 84.463ZM353.384 81.646V88H352.772L352.448 87.577C352.25 87.745 352.016 87.877 351.746 87.973C351.482 88.063 351.242 88.108 351.026 88.108C350.39 88.108 349.901 87.886 349.559 87.442C349.217 86.998 349.046 86.446 349.046 85.786C349.046 85.126 349.226 84.574 349.586 84.13C349.952 83.686 350.45 83.464 351.08 83.464C351.242 83.464 351.425 83.494 351.629 83.554C351.833 83.608 352.025 83.686 352.205 83.788V81.745L353.384 81.646ZM355.138 81.7C355.324 81.7 355.48 81.763 355.606 81.889C355.738 82.015 355.804 82.171 355.804 82.357C355.804 82.543 355.738 82.699 355.606 82.825C355.48 82.951 355.324 83.014 355.138 83.014C354.958 83.014 354.805 82.951 354.679 82.825C354.553 82.699 354.49 82.543 354.49 82.357C354.49 82.171 354.553 82.015 354.679 81.889C354.805 81.763 354.958 81.7 355.138 81.7ZM355.723 83.635V88H354.553V83.635H355.723ZM358.871 88.108C358.181 88.108 357.641 87.901 357.251 87.487C356.867 87.067 356.675 86.506 356.675 85.804C356.675 85.108 356.876 84.553 357.278 84.139C357.686 83.725 358.241 83.518 358.943 83.518C359.669 83.518 360.23 83.734 360.626 84.166C361.028 84.592 361.229 85.153 361.229 85.849C361.229 86.545 361.013 87.097 360.581 87.505C360.149 87.907 359.579 88.108 358.871 88.108ZM360.023 85.849C360.023 85.435 359.93 85.111 359.744 84.877C359.564 84.637 359.306 84.517 358.97 84.517C358.628 84.517 358.361 84.622 358.169 84.832C357.977 85.042 357.881 85.363 357.881 85.795C357.881 86.227 357.962 86.554 358.124 86.776C358.292 86.998 358.547 87.109 358.889 87.109C359.225 87.109 359.498 87.01 359.708 86.812C359.918 86.608 360.023 86.287 360.023 85.849Z" fill="white"/>
<path d="M332.911 94.21C333.677 94.21 334.211 94.4 334.511 94.78C334.811 95.1533 334.961 95.5667 334.961 96.02C334.961 96.42 334.847 96.7867 334.621 97.12C334.401 97.4533 334.047 97.82 333.561 98.22L332.611 99.01H335.081L335.251 100H330.901V99.13L332.861 97.41C333.234 97.0833 333.484 96.8233 333.611 96.63C333.737 96.43 333.801 96.2267 333.801 96.02C333.801 95.8067 333.721 95.6267 333.561 95.48C333.401 95.3333 333.177 95.26 332.891 95.26C332.644 95.26 332.361 95.35 332.041 95.53C331.721 95.71 331.551 95.8033 331.531 95.81L330.971 94.93C331.157 94.7833 331.411 94.6267 331.731 94.46C332.051 94.2933 332.444 94.21 332.911 94.21ZM337.989 94.21C338.756 94.21 339.289 94.4 339.589 94.78C339.889 95.1533 340.039 95.5667 340.039 96.02C340.039 96.42 339.926 96.7867 339.699 97.12C339.479 97.4533 339.126 97.82 338.639 98.22L337.689 99.01H340.159L340.329 100H335.979V99.13L337.939 97.41C338.312 97.0833 338.562 96.8233 338.689 96.63C338.816 96.43 338.879 96.2267 338.879 96.02C338.879 95.8067 338.799 95.6267 338.639 95.48C338.479 95.3333 338.256 95.26 337.969 95.26C337.722 95.26 337.439 95.35 337.119 95.53C336.799 95.71 336.629 95.8033 336.609 95.81L336.049 94.93C336.236 94.7833 336.489 94.6267 336.809 94.46C337.129 94.2933 337.522 94.21 337.989 94.21ZM341.587 98.54C341.794 98.54 341.964 98.61 342.097 98.75C342.237 98.89 342.307 99.0633 342.307 99.27C342.307 99.4767 342.237 99.65 342.097 99.79C341.964 99.93 341.794 100 341.587 100C341.38 100 341.204 99.93 341.057 99.79C340.917 99.65 340.847 99.4767 340.847 99.27C340.847 99.0633 340.917 98.89 341.057 98.75C341.204 98.61 341.38 98.54 341.587 98.54ZM342.727 96.37C342.727 95.81 342.927 95.31 343.327 94.87C343.734 94.43 344.26 94.21 344.907 94.21C345.64 94.21 346.25 94.44 346.737 94.9C347.224 95.36 347.467 96.0467 347.467 96.96C347.467 97.6933 347.194 98.4533 346.647 99.24C346.107 100.02 345.394 100.503 344.507 100.69L343.917 99.83C344.417 99.71 344.854 99.4867 345.227 99.16C345.6 98.8267 345.88 98.4533 346.067 98.04C345.9 98.1467 345.72 98.2333 345.527 98.3C345.334 98.3667 345.14 98.4 344.947 98.4C344.287 98.4 343.75 98.1967 343.337 97.79C342.93 97.3833 342.727 96.91 342.727 96.37ZM343.897 96.31C343.897 96.5967 343.99 96.8633 344.177 97.11C344.364 97.35 344.62 97.47 344.947 97.47C345.287 97.47 345.574 97.3767 345.807 97.19C346.04 97.0033 346.2 96.8067 346.287 96.6C346.234 96.2 346.094 95.88 345.867 95.64C345.647 95.4 345.337 95.28 344.937 95.28C344.617 95.28 344.364 95.3867 344.177 95.6C343.99 95.8067 343.897 96.0433 343.897 96.31ZM353.163 98.15C353.163 98.69 352.956 99.1567 352.543 99.55C352.136 99.9367 351.573 100.13 350.853 100.13C350.12 100.13 349.546 99.9367 349.133 99.55C348.726 99.1567 348.523 98.69 348.523 98.15C348.523 97.81 348.64 97.49 348.873 97.19C349.106 96.89 349.363 96.6933 349.643 96.6C349.39 96.4867 349.183 96.3167 349.023 96.09C348.863 95.8567 348.783 95.6 348.783 95.32C348.783 94.8467 348.966 94.4367 349.333 94.09C349.706 93.7433 350.213 93.57 350.853 93.57C351.486 93.57 351.986 93.7433 352.353 94.09C352.726 94.4367 352.913 94.8467 352.913 95.32C352.913 95.6 352.83 95.8567 352.663 96.09C352.503 96.3167 352.296 96.4867 352.043 96.6C352.323 96.6933 352.58 96.89 352.813 97.19C353.046 97.49 353.163 97.81 353.163 98.15ZM349.943 95.34C349.943 95.56 350.02 95.74 350.173 95.88C350.333 96.0133 350.56 96.1033 350.853 96.15C351.146 96.1033 351.366 96.01 351.513 95.87C351.666 95.73 351.743 95.5467 351.743 95.32C351.743 95.1333 351.656 94.9733 351.483 94.84C351.31 94.7 351.093 94.63 350.833 94.63C350.586 94.63 350.376 94.7 350.203 94.84C350.03 94.98 349.943 95.1467 349.943 95.34ZM349.693 98.17C349.693 98.4567 349.81 98.68 350.043 98.84C350.283 99 350.55 99.08 350.843 99.08C351.13 99.08 351.393 99 351.633 98.84C351.88 98.68 352.003 98.4567 352.003 98.17C352.003 97.93 351.903 97.71 351.703 97.51C351.51 97.31 351.226 97.18 350.853 97.12C350.466 97.18 350.176 97.31 349.983 97.51C349.79 97.71 349.693 97.93 349.693 98.17ZM353.997 96.37C353.997 95.81 354.197 95.31 354.597 94.87C355.003 94.43 355.53 94.21 356.177 94.21C356.91 94.21 357.52 94.44 358.007 94.9C358.493 95.36 358.737 96.0467 358.737 96.96C358.737 97.6933 358.463 98.4533 357.917 99.24C357.377 100.02 356.663 100.503 355.777 100.69L355.187 99.83C355.687 99.71 356.123 99.4867 356.497 99.16C356.87 98.8267 357.15 98.4533 357.337 98.04C357.17 98.1467 356.99 98.2333 356.797 98.3C356.603 98.3667 356.41 98.4 356.217 98.4C355.557 98.4 355.02 98.1967 354.607 97.79C354.2 97.3833 353.997 96.91 353.997 96.37ZM355.167 96.31C355.167 96.5967 355.26 96.8633 355.447 97.11C355.633 97.35 355.89 97.47 356.217 97.47C356.557 97.47 356.843 97.3767 357.077 97.19C357.31 97.0033 357.47 96.8067 357.557 96.6C357.503 96.2 357.363 95.88 357.137 95.64C356.917 95.4 356.607 95.28 356.207 95.28C355.887 95.28 355.633 95.3867 355.447 95.6C355.26 95.8067 355.167 96.0433 355.167 96.31ZM359.762 100.34L362.502 95.39H359.852L359.692 94.34H363.752L364.132 94.86L360.972 100.69L359.762 100.34ZM364.831 100.34L367.571 95.39H364.921L364.761 94.34H368.821L369.201 94.86L366.041 100.69L364.831 100.34Z" fill="white"/>
<path d="M202 18H298V16H202V18ZM299 19V115H301V19H299ZM298 116H202V118H298V116ZM201 115V19H199V115H201ZM202 116C201.448 116 201 115.552 201 115H199C199 116.657 200.343 118 202 118V116ZM299 115C299 115.552 298.552 116 298 116V118C299.657 118 301 116.657 301 115H299ZM298 18C298.552 18 299 18.4477 299 19H301C301 17.3431 299.657 16 298 16V18ZM202 16C200.343 16 199 17.3431 199 19H201C201 18.4477 201.448 18 202 18V16Z" fill="white" fill-opacity="0.1"/>
<rect x="200" y="17" width="100" height="100" fill="white"/>
<rect x="201" y="18" width="98" height="98" fill="#008000"/>
<path d="M254.132 37.48V81H245.876V37.48H254.132Z" fill="white"/>
<path d="M204.522 26.528L204.738 22.208H209.13L208.962 23.468H206.058L205.986 24.896C206.114 24.832 206.254 24.788 206.406 24.764C206.558 24.732 206.714 24.716 206.874 24.716C207.77 24.716 208.438 24.968 208.878 25.472C209.326 25.976 209.55 26.564 209.55 27.236C209.55 28.02 209.286 28.66 208.758 29.156C208.23 29.66 207.51 29.912 206.598 29.912C206.15 29.912 205.694 29.836 205.23 29.684C204.766 29.532 204.358 29.36 204.006 29.168L204.774 28.076C205.094 28.252 205.394 28.384 205.674 28.472C205.954 28.56 206.274 28.604 206.634 28.604C207.058 28.604 207.414 28.484 207.702 28.244C207.99 27.996 208.134 27.66 208.134 27.236C208.134 26.844 208.018 26.536 207.786 26.312C207.562 26.08 207.278 25.964 206.934 25.964C206.654 25.964 206.426 26.028 206.25 26.156C206.074 26.276 205.958 26.4 205.902 26.528H204.522ZM213.089 22.052C213.929 22.052 214.557 22.26 214.973 22.676C215.397 23.092 215.609 23.58 215.609 24.14C215.609 24.508 215.505 24.84 215.297 25.136C215.089 25.424 214.869 25.62 214.637 25.724C214.861 25.78 215.101 25.976 215.357 26.312C215.621 26.64 215.753 27.052 215.753 27.548C215.753 28.212 215.497 28.772 214.985 29.228C214.473 29.684 213.785 29.912 212.921 29.912C212.481 29.912 212.025 29.832 211.553 29.672C211.089 29.52 210.673 29.348 210.305 29.156L211.097 28.112C211.417 28.304 211.717 28.444 211.997 28.532C212.277 28.612 212.593 28.652 212.945 28.652C213.297 28.652 213.613 28.556 213.893 28.364C214.181 28.172 214.325 27.904 214.325 27.56C214.325 27.192 214.181 26.9 213.893 26.684C213.613 26.468 213.157 26.36 212.525 26.36H212.021L211.805 25.148H212.597C213.085 25.148 213.469 25.06 213.749 24.884C214.037 24.7 214.181 24.46 214.181 24.164C214.181 23.932 214.077 23.732 213.869 23.564C213.669 23.396 213.397 23.312 213.053 23.312C212.693 23.312 212.357 23.38 212.045 23.516C211.741 23.644 211.481 23.784 211.265 23.936L210.533 22.892C210.925 22.636 211.329 22.432 211.745 22.28C212.161 22.128 212.609 22.052 213.089 22.052Z" fill="white"/>
<path d="M293.825 21.368C294.438 21.368 294.865 21.52 295.105 21.824C295.345 22.1227 295.465 22.4533 295.465 22.816C295.465 23.136 295.374 23.4293 295.193 23.696C295.017 23.9627 294.734 24.256 294.345 24.576L293.585 25.208H295.561L295.697 26H292.217V25.304L293.785 23.928C294.083 23.6667 294.283 23.4587 294.385 23.304C294.486 23.144 294.537 22.9813 294.537 22.816C294.537 22.6453 294.473 22.5013 294.345 22.384C294.217 22.2667 294.038 22.208 293.809 22.208C293.611 22.208 293.385 22.28 293.129 22.424C292.873 22.568 292.737 22.6427 292.721 22.648L292.273 21.944C292.422 21.8267 292.625 21.7013 292.881 21.568C293.137 21.4347 293.451 21.368 293.825 21.368ZM295.855 33.52C295.855 33.952 295.689 34.3253 295.359 34.64C295.033 34.9493 294.583 35.104 294.007 35.104C293.42 35.104 292.961 34.9493 292.631 34.64C292.305 34.3253 292.143 33.952 292.143 33.52C292.143 33.248 292.236 32.992 292.423 32.752C292.609 32.512 292.815 32.3547 293.039 32.28C292.836 32.1893 292.671 32.0533 292.543 31.872C292.415 31.6853 292.351 31.48 292.351 31.256C292.351 30.8773 292.497 30.5493 292.791 30.272C293.089 29.9947 293.495 29.856 294.007 29.856C294.513 29.856 294.913 29.9947 295.207 30.272C295.505 30.5493 295.655 30.8773 295.655 31.256C295.655 31.48 295.588 31.6853 295.455 31.872C295.327 32.0533 295.161 32.1893 294.959 32.28C295.183 32.3547 295.388 32.512 295.575 32.752C295.761 32.992 295.855 33.248 295.855 33.52ZM293.279 31.272C293.279 31.448 293.34 31.592 293.463 31.704C293.591 31.8107 293.772 31.8827 294.007 31.92C294.241 31.8827 294.417 31.808 294.535 31.696C294.657 31.584 294.719 31.4373 294.719 31.256C294.719 31.1067 294.649 30.9787 294.511 30.872C294.372 30.76 294.199 30.704 293.991 30.704C293.793 30.704 293.625 30.76 293.487 30.872C293.348 30.984 293.279 31.1173 293.279 31.272ZM293.079 33.536C293.079 33.7653 293.172 33.944 293.359 34.072C293.551 34.2 293.764 34.264 293.999 34.264C294.228 34.264 294.439 34.2 294.631 34.072C294.828 33.944 294.927 33.7653 294.927 33.536C294.927 33.344 294.847 33.168 294.687 33.008C294.532 32.848 294.305 32.744 294.007 32.696C293.697 32.744 293.465 32.848 293.311 33.008C293.156 33.168 293.079 33.344 293.079 33.536ZM290.473 43.28H291.345V40.664L290.929 40.904L290.441 40.2L291.689 39.472H292.385V43.28H293.001L293.089 44H290.553L290.473 43.28ZM297.636 42.52C297.636 42.952 297.47 43.3253 297.14 43.64C296.814 43.9493 296.364 44.104 295.788 44.104C295.201 44.104 294.742 43.9493 294.412 43.64C294.086 43.3253 293.924 42.952 293.924 42.52C293.924 42.248 294.017 41.992 294.204 41.752C294.39 41.512 294.596 41.3547 294.82 41.28C294.617 41.1893 294.452 41.0533 294.324 40.872C294.196 40.6853 294.132 40.48 294.132 40.256C294.132 39.8773 294.278 39.5493 294.572 39.272C294.87 38.9947 295.276 38.856 295.788 38.856C296.294 38.856 296.694 38.9947 296.988 39.272C297.286 39.5493 297.436 39.8773 297.436 40.256C297.436 40.48 297.369 40.6853 297.236 40.872C297.108 41.0533 296.942 41.1893 296.74 41.28C296.964 41.3547 297.169 41.512 297.356 41.752C297.542 41.992 297.636 42.248 297.636 42.52ZM295.06 40.272C295.06 40.448 295.121 40.592 295.244 40.704C295.372 40.8107 295.553 40.8827 295.788 40.92C296.022 40.8827 296.198 40.808 296.316 40.696C296.438 40.584 296.5 40.4373 296.5 40.256C296.5 40.1067 296.43 39.9787 296.292 39.872C296.153 39.76 295.98 39.704 295.772 39.704C295.574 39.704 295.406 39.76 295.268 39.872C295.129 39.984 295.06 40.1173 295.06 40.272ZM294.86 42.536C294.86 42.7653 294.953 42.944 295.14 43.072C295.332 43.2 295.545 43.264 295.78 43.264C296.009 43.264 296.22 43.2 296.412 43.072C296.609 42.944 296.708 42.7653 296.708 42.536C296.708 42.344 296.628 42.168 296.468 42.008C296.313 41.848 296.086 41.744 295.788 41.696C295.478 41.744 295.246 41.848 295.092 42.008C294.937 42.168 294.86 42.344 294.86 42.536ZM290.473 52.28H291.345V49.664L290.929 49.904L290.441 49.2L291.689 48.472H292.385V52.28H293.001L293.089 53H290.553L290.473 52.28ZM297.636 51.52C297.636 51.952 297.47 52.3253 297.14 52.64C296.814 52.9493 296.364 53.104 295.788 53.104C295.201 53.104 294.742 52.9493 294.412 52.64C294.086 52.3253 293.924 51.952 293.924 51.52C293.924 51.248 294.017 50.992 294.204 50.752C294.39 50.512 294.596 50.3547 294.82 50.28C294.617 50.1893 294.452 50.0533 294.324 49.872C294.196 49.6853 294.132 49.48 294.132 49.256C294.132 48.8773 294.278 48.5493 294.572 48.272C294.87 47.9947 295.276 47.856 295.788 47.856C296.294 47.856 296.694 47.9947 296.988 48.272C297.286 48.5493 297.436 48.8773 297.436 49.256C297.436 49.48 297.369 49.6853 297.236 49.872C297.108 50.0533 296.942 50.1893 296.74 50.28C296.964 50.3547 297.169 50.512 297.356 50.752C297.542 50.992 297.636 51.248 297.636 51.52ZM295.06 49.272C295.06 49.448 295.121 49.592 295.244 49.704C295.372 49.8107 295.553 49.8827 295.788 49.92C296.022 49.8827 296.198 49.808 296.316 49.696C296.438 49.584 296.5 49.4373 296.5 49.256C296.5 49.1067 296.43 48.9787 296.292 48.872C296.153 48.76 295.98 48.704 295.772 48.704C295.574 48.704 295.406 48.76 295.268 48.872C295.129 48.984 295.06 49.1173 295.06 49.272ZM294.86 51.536C294.86 51.7653 294.953 51.944 295.14 52.072C295.332 52.2 295.545 52.264 295.78 52.264C296.009 52.264 296.22 52.2 296.412 52.072C296.609 51.944 296.708 51.7653 296.708 51.536C296.708 51.344 296.628 51.168 296.468 51.008C296.313 50.848 296.086 50.744 295.788 50.696C295.478 50.744 295.246 50.848 295.092 51.008C294.937 51.168 294.86 51.344 294.86 51.536ZM292.365 62.272L294.557 58.312H292.437L292.309 57.472H295.557L295.861 57.888L293.333 62.552L292.365 62.272Z" fill="white"/>
<path d="M242.609 90.88V97H241.448V90.88H242.609ZM245.938 97.108C245.248 97.108 244.708 96.901 244.318 96.487C243.934 96.067 243.742 95.506 243.742 94.804C243.742 94.108 243.943 93.553 244.345 93.139C244.753 92.725 245.308 92.518 246.01 92.518C246.736 92.518 247.297 92.734 247.693 93.166C248.095 93.592 248.296 94.153 248.296 94.849C248.296 95.545 248.08 96.097 247.648 96.505C247.216 96.907 246.646 97.108 245.938 97.108ZM247.09 94.849C247.09 94.435 246.997 94.111 246.811 93.877C246.631 93.637 246.373 93.517 246.037 93.517C245.695 93.517 245.428 93.622 245.236 93.832C245.044 94.042 244.948 94.363 244.948 94.795C244.948 95.227 245.029 95.554 245.191 95.776C245.359 95.998 245.614 96.109 245.956 96.109C246.292 96.109 246.565 96.01 246.775 95.812C246.985 95.608 247.09 95.287 247.09 94.849ZM251.346 93.463C250.938 93.463 250.653 93.607 250.491 93.895C250.335 94.183 250.257 94.48 250.257 94.786C250.257 95.128 250.329 95.434 250.473 95.704C250.617 95.974 250.908 96.109 251.346 96.109C251.484 96.109 251.628 96.079 251.778 96.019C251.934 95.953 252.078 95.878 252.21 95.794V93.778C252.078 93.688 251.934 93.613 251.778 93.553C251.628 93.493 251.484 93.463 251.346 93.463ZM253.389 90.646V97H252.777L252.453 96.577C252.255 96.745 252.021 96.877 251.751 96.973C251.487 97.063 251.247 97.108 251.031 97.108C250.395 97.108 249.906 96.886 249.564 96.442C249.222 95.998 249.051 95.446 249.051 94.786C249.051 94.126 249.231 93.574 249.591 93.13C249.957 92.686 250.455 92.464 251.085 92.464C251.247 92.464 251.43 92.494 251.634 92.554C251.838 92.608 252.03 92.686 252.21 92.788V90.745L253.389 90.646ZM256.573 97.108C255.883 97.108 255.343 96.901 254.953 96.487C254.569 96.067 254.377 95.506 254.377 94.804C254.377 94.108 254.578 93.553 254.98 93.139C255.388 92.725 255.943 92.518 256.645 92.518C257.371 92.518 257.932 92.734 258.328 93.166C258.73 93.592 258.931 94.153 258.931 94.849C258.931 95.545 258.715 96.097 258.283 96.505C257.851 96.907 257.281 97.108 256.573 97.108ZM257.725 94.849C257.725 94.435 257.632 94.111 257.446 93.877C257.266 93.637 257.008 93.517 256.672 93.517C256.33 93.517 256.063 93.622 255.871 93.832C255.679 94.042 255.583 94.363 255.583 94.795C255.583 95.227 255.664 95.554 255.826 95.776C255.994 95.998 256.249 96.109 256.591 96.109C256.927 96.109 257.2 96.01 257.41 95.812C257.62 95.608 257.725 95.287 257.725 94.849Z" fill="white"/>
<path d="M227.901 108.1H228.991V104.83L228.471 105.13L227.861 104.25L229.421 103.34H230.291V108.1H231.061L231.171 109H228.001L227.901 108.1ZM234.014 103.21C234.781 103.21 235.314 103.4 235.614 103.78C235.914 104.153 236.064 104.567 236.064 105.02C236.064 105.42 235.951 105.787 235.724 106.12C235.504 106.453 235.151 106.82 234.664 107.22L233.714 108.01H236.184L236.354 109H232.004V108.13L233.964 106.41C234.338 106.083 234.588 105.823 234.714 105.63C234.841 105.43 234.904 105.227 234.904 105.02C234.904 104.807 234.824 104.627 234.664 104.48C234.504 104.333 234.281 104.26 233.994 104.26C233.748 104.26 233.464 104.35 233.144 104.53C232.824 104.71 232.654 104.803 232.634 104.81L232.074 103.93C232.261 103.783 232.514 103.627 232.834 103.46C233.154 103.293 233.548 103.21 234.014 103.21ZM242.042 106.97C242.042 107.53 241.849 108.03 241.462 108.47C241.076 108.91 240.559 109.13 239.912 109.13C239.179 109.13 238.559 108.9 238.052 108.44C237.546 107.98 237.292 107.293 237.292 106.38C237.292 105.647 237.566 104.89 238.112 104.11C238.659 103.323 239.379 102.84 240.272 102.66L240.842 103.51C240.342 103.623 239.902 103.85 239.522 104.19C239.142 104.53 238.862 104.91 238.682 105.33C238.856 105.223 239.046 105.133 239.252 105.06C239.459 104.98 239.666 104.94 239.872 104.94C240.526 104.94 241.049 105.143 241.442 105.55C241.842 105.957 242.042 106.43 242.042 106.97ZM240.882 107.03C240.882 106.743 240.786 106.48 240.592 106.24C240.406 105.993 240.146 105.87 239.812 105.87C239.486 105.87 239.202 105.963 238.962 106.15C238.729 106.337 238.569 106.537 238.482 106.75C238.536 107.137 238.672 107.453 238.892 107.7C239.119 107.94 239.436 108.06 239.842 108.06C240.156 108.06 240.406 107.957 240.592 107.75C240.786 107.537 240.882 107.297 240.882 107.03ZM243.198 107.54C243.405 107.54 243.575 107.61 243.708 107.75C243.848 107.89 243.918 108.063 243.918 108.27C243.918 108.477 243.848 108.65 243.708 108.79C243.575 108.93 243.405 109 243.198 109C242.992 109 242.815 108.93 242.668 108.79C242.528 108.65 242.458 108.477 242.458 108.27C242.458 108.063 242.528 107.89 242.668 107.75C242.815 107.61 242.992 107.54 243.198 107.54ZM244.338 105.37C244.338 104.81 244.538 104.31 244.938 103.87C245.345 103.43 245.872 103.21 246.518 103.21C247.252 103.21 247.862 103.44 248.348 103.9C248.835 104.36 249.078 105.047 249.078 105.96C249.078 106.693 248.805 107.453 248.258 108.24C247.718 109.02 247.005 109.503 246.118 109.69L245.528 108.83C246.028 108.71 246.465 108.487 246.838 108.16C247.212 107.827 247.492 107.453 247.678 107.04C247.512 107.147 247.332 107.233 247.138 107.3C246.945 107.367 246.752 107.4 246.558 107.4C245.898 107.4 245.362 107.197 244.948 106.79C244.542 106.383 244.338 105.91 244.338 105.37ZM245.508 105.31C245.508 105.597 245.602 105.863 245.788 106.11C245.975 106.35 246.232 106.47 246.558 106.47C246.898 106.47 247.185 106.377 247.418 106.19C247.652 106.003 247.812 105.807 247.898 105.6C247.845 105.2 247.705 104.88 247.478 104.64C247.258 104.4 246.948 104.28 246.548 104.28C246.228 104.28 245.975 104.387 245.788 104.6C245.602 104.807 245.508 105.043 245.508 105.31ZM250.134 106.15C250.134 105.237 250.381 104.52 250.874 104C251.368 103.473 251.984 103.21 252.724 103.21C253.471 103.21 254.084 103.463 254.564 103.97C255.051 104.477 255.294 105.197 255.294 106.13C255.294 107.05 255.044 107.78 254.544 108.32C254.051 108.86 253.441 109.13 252.714 109.13C251.981 109.13 251.368 108.87 250.874 108.35C250.381 107.823 250.134 107.09 250.134 106.15ZM251.324 106.12C251.324 106.74 251.461 107.213 251.734 107.54C252.014 107.86 252.344 108.02 252.724 108.02C253.091 108.02 253.414 107.86 253.694 107.54C253.981 107.22 254.124 106.763 254.124 106.17C254.124 105.557 253.984 105.093 253.704 104.78C253.431 104.467 253.101 104.31 252.714 104.31C252.341 104.31 252.014 104.467 251.734 104.78C251.461 105.087 251.324 105.533 251.324 106.12ZM261.315 108.41H260.395V109.69H259.085V108.41H256.315L256.145 107.34L259.425 103.29H260.395V107.34H261.445L261.315 108.41ZM257.545 107.34H259.085V105.37L257.545 107.34ZM267.243 108.41H266.323V109.69H265.013V108.41H262.243L262.073 107.34L265.353 103.29H266.323V107.34H267.373L267.243 108.41ZM263.473 107.34H265.013V105.37L263.473 107.34ZM268.18 109.34L270.92 104.39H268.27L268.11 103.34H272.17L272.55 103.86L269.39 109.69L268.18 109.34Z" fill="white"/>
<path d="M102 1H198V-1H102V1ZM199 2V98H201V2H199ZM198 99H102V101H198V99ZM101 98V2H99V98H101ZM102 99C101.448 99 101 98.5523 101 98H99C99 99.6569 100.343 101 102 101V99ZM199 98C199 98.5523 198.552 99 198 99V101C199.657 101 201 99.6569 201 98H199ZM198 1C198.552 1 199 1.44771 199 2H201C201 0.343147 199.657 -1 198 -1V1ZM102 -1C100.343 -1 99 0.343143 99 2H101C101 1.44771 101.448 1 102 1V-1Z" fill="white" fill-opacity="0.1"/>
<rect x="100" width="100" height="100" fill="white"/>
<rect x="101" y="1" width="98" height="98" fill="#970700"/>
<path d="M142.483 45.568H130.195V64H121.939V20.48H146.579L147.859 27.008H130.195V39.104H141.267L142.483 45.568ZM168.595 64.768C163.219 64.768 158.973 63.296 155.859 60.352C152.787 57.408 151.251 53.4613 151.251 48.512C151.251 43.5627 152.637 39.5947 155.411 36.608C158.227 33.6213 162.045 32.128 166.867 32.128C171.731 32.128 175.293 33.7493 177.555 36.992C179.859 40.192 181.011 43.9893 181.011 48.384V50.944H160.083C160.467 52.992 161.405 54.6347 162.899 55.872C164.392 57.0667 166.355 57.664 168.787 57.664C170.195 57.664 171.453 57.4933 172.563 57.152C173.715 56.768 175.037 56.2347 176.531 55.552L178.963 61.568C177.512 62.6773 175.741 63.488 173.651 64C171.603 64.512 169.917 64.768 168.595 64.768ZM173.139 45.376C172.712 43.2853 171.944 41.7493 170.835 40.768C169.725 39.744 168.339 39.232 166.675 39.232C164.968 39.232 163.539 39.7653 162.387 40.832C161.235 41.856 160.488 43.3707 160.147 45.376H173.139Z" fill="white"/>
<path d="M106.386 5.052C107.306 5.052 107.946 5.28 108.306 5.736C108.666 6.184 108.846 6.68 108.846 7.224C108.846 7.704 108.71 8.144 108.438 8.544C108.174 8.944 107.75 9.384 107.166 9.864L106.026 10.812H108.99L109.194 12H103.974V10.956L106.326 8.892C106.774 8.5 107.074 8.188 107.226 7.956C107.378 7.716 107.454 7.472 107.454 7.224C107.454 6.968 107.358 6.752 107.166 6.576C106.974 6.4 106.706 6.312 106.362 6.312C106.066 6.312 105.726 6.42 105.342 6.636C104.958 6.852 104.754 6.964 104.73 6.972L104.058 5.916C104.282 5.74 104.586 5.552 104.97 5.352C105.354 5.152 105.826 5.052 106.386 5.052ZM116.019 9.564C116.019 10.236 115.787 10.836 115.323 11.364C114.859 11.892 114.239 12.156 113.463 12.156C112.583 12.156 111.839 11.88 111.231 11.328C110.623 10.776 110.319 9.952 110.319 8.856C110.319 7.976 110.647 7.068 111.303 6.132C111.959 5.188 112.823 4.608 113.895 4.392L114.579 5.412C113.979 5.548 113.451 5.82 112.995 6.228C112.539 6.636 112.203 7.092 111.987 7.596C112.195 7.468 112.423 7.36 112.671 7.272C112.919 7.176 113.167 7.128 113.415 7.128C114.199 7.128 114.827 7.372 115.299 7.86C115.779 8.348 116.019 8.916 116.019 9.564ZM114.627 9.636C114.627 9.292 114.511 8.976 114.279 8.688C114.055 8.392 113.743 8.244 113.343 8.244C112.951 8.244 112.611 8.356 112.323 8.58C112.043 8.804 111.851 9.044 111.747 9.3C111.811 9.764 111.975 10.144 112.239 10.44C112.511 10.728 112.891 10.872 113.379 10.872C113.755 10.872 114.055 10.748 114.279 10.5C114.511 10.244 114.627 9.956 114.627 9.636Z" fill="white"/>
<path d="M193.825 4.368C194.438 4.368 194.865 4.52 195.105 4.824C195.345 5.12267 195.465 5.45333 195.465 5.816C195.465 6.136 195.374 6.42933 195.193 6.696C195.017 6.96267 194.734 7.256 194.345 7.576L193.585 8.208H195.561L195.697 9H192.217V8.304L193.785 6.928C194.083 6.66667 194.283 6.45867 194.385 6.304C194.486 6.144 194.537 5.98133 194.537 5.816C194.537 5.64533 194.473 5.50133 194.345 5.384C194.217 5.26667 194.038 5.208 193.809 5.208C193.611 5.208 193.385 5.28 193.129 5.424C192.873 5.568 192.737 5.64267 192.721 5.648L192.273 4.944C192.422 4.82667 192.625 4.70133 192.881 4.568C193.137 4.43467 193.451 4.368 193.825 4.368ZM195.855 16.52C195.855 16.952 195.689 17.3253 195.359 17.64C195.033 17.9493 194.583 18.104 194.007 18.104C193.42 18.104 192.961 17.9493 192.631 17.64C192.305 17.3253 192.143 16.952 192.143 16.52C192.143 16.248 192.236 15.992 192.423 15.752C192.609 15.512 192.815 15.3547 193.039 15.28C192.836 15.1893 192.671 15.0533 192.543 14.872C192.415 14.6853 192.351 14.48 192.351 14.256C192.351 13.8773 192.497 13.5493 192.791 13.272C193.089 12.9947 193.495 12.856 194.007 12.856C194.513 12.856 194.913 12.9947 195.207 13.272C195.505 13.5493 195.655 13.8773 195.655 14.256C195.655 14.48 195.588 14.6853 195.455 14.872C195.327 15.0533 195.161 15.1893 194.959 15.28C195.183 15.3547 195.388 15.512 195.575 15.752C195.761 15.992 195.855 16.248 195.855 16.52ZM193.279 14.272C193.279 14.448 193.34 14.592 193.463 14.704C193.591 14.8107 193.772 14.8827 194.007 14.92C194.241 14.8827 194.417 14.808 194.535 14.696C194.657 14.584 194.719 14.4373 194.719 14.256C194.719 14.1067 194.649 13.9787 194.511 13.872C194.372 13.76 194.199 13.704 193.991 13.704C193.793 13.704 193.625 13.76 193.487 13.872C193.348 13.984 193.279 14.1173 193.279 14.272ZM193.079 16.536C193.079 16.7653 193.172 16.944 193.359 17.072C193.551 17.2 193.764 17.264 193.999 17.264C194.228 17.264 194.439 17.2 194.631 17.072C194.828 16.944 194.927 16.7653 194.927 16.536C194.927 16.344 194.847 16.168 194.687 16.008C194.532 15.848 194.305 15.744 194.007 15.696C193.697 15.744 193.465 15.848 193.311 16.008C193.156 16.168 193.079 16.344 193.079 16.536ZM190.376 26.28H191.248V23.664L190.832 23.904L190.344 23.2L191.592 22.472H192.288V26.28H192.904L192.992 27H190.456L190.376 26.28ZM197.794 26.528H197.058V27.552H196.01V26.528H193.794L193.658 25.672L196.282 22.432H197.058V25.672H197.898L197.794 26.528ZM194.778 25.672H196.01V24.096L194.778 25.672ZM193.825 31.368C194.438 31.368 194.865 31.52 195.105 31.824C195.345 32.1227 195.465 32.4533 195.465 32.816C195.465 33.136 195.374 33.4293 195.193 33.696C195.017 33.9627 194.734 34.256 194.345 34.576L193.585 35.208H195.561L195.697 36H192.217V35.304L193.785 33.928C194.083 33.6667 194.283 33.4587 194.385 33.304C194.486 33.144 194.537 32.9813 194.537 32.816C194.537 32.6453 194.473 32.5013 194.345 32.384C194.217 32.2667 194.038 32.208 193.809 32.208C193.611 32.208 193.385 32.28 193.129 32.424C192.873 32.568 192.737 32.6427 192.721 32.648L192.273 31.944C192.422 31.8267 192.625 31.7013 192.881 31.568C193.137 31.4347 193.451 31.368 193.825 31.368Z" fill="white"/>
<path d="M143.063 77.408H141.335V80H140.174V73.88H143.639L143.819 74.798H141.335V76.499H142.892L143.063 77.408ZM146.735 80.108C145.979 80.108 145.382 79.901 144.944 79.487C144.512 79.073 144.296 78.518 144.296 77.822C144.296 77.126 144.491 76.568 144.881 76.148C145.277 75.728 145.814 75.518 146.492 75.518C147.176 75.518 147.677 75.746 147.995 76.202C148.319 76.652 148.481 77.186 148.481 77.804V78.164H145.538C145.592 78.452 145.724 78.683 145.934 78.857C146.144 79.025 146.42 79.109 146.762 79.109C146.96 79.109 147.137 79.085 147.293 79.037C147.455 78.983 147.641 78.908 147.851 78.812L148.193 79.658C147.989 79.814 147.74 79.928 147.446 80C147.158 80.072 146.921 80.108 146.735 80.108ZM147.374 77.381C147.314 77.087 147.206 76.871 147.05 76.733C146.894 76.589 146.699 76.517 146.465 76.517C146.225 76.517 146.024 76.592 145.862 76.742C145.7 76.886 145.595 77.099 145.547 77.381H147.374ZM151.774 75.635L152.008 76.571C151.81 76.571 151.579 76.628 151.315 76.742C151.057 76.856 150.802 77.024 150.55 77.246V80H149.38V75.635H149.992L150.379 76.274C150.559 76.118 150.778 75.974 151.036 75.842C151.294 75.704 151.54 75.635 151.774 75.635ZM155 75.635L155.234 76.571C155.036 76.571 154.805 76.628 154.541 76.742C154.283 76.856 154.028 77.024 153.776 77.246V80H152.606V75.635H153.218L153.605 76.274C153.785 76.118 154.004 75.974 154.262 75.842C154.52 75.704 154.766 75.635 155 75.635ZM157.847 80.108C157.157 80.108 156.617 79.901 156.227 79.487C155.843 79.067 155.651 78.506 155.651 77.804C155.651 77.108 155.852 76.553 156.254 76.139C156.662 75.725 157.217 75.518 157.919 75.518C158.645 75.518 159.206 75.734 159.602 76.166C160.004 76.592 160.205 77.153 160.205 77.849C160.205 78.545 159.989 79.097 159.557 79.505C159.125 79.907 158.555 80.108 157.847 80.108ZM158.999 77.849C158.999 77.435 158.906 77.111 158.72 76.877C158.54 76.637 158.282 76.517 157.946 76.517C157.604 76.517 157.337 76.622 157.145 76.832C156.953 77.042 156.857 77.363 156.857 77.795C156.857 78.227 156.938 78.554 157.1 78.776C157.268 78.998 157.523 79.109 157.865 79.109C158.201 79.109 158.474 79.01 158.684 78.812C158.894 78.608 158.999 78.287 158.999 77.849Z" fill="white"/>
<path d="M136.021 89.94L136.201 86.34H139.861L139.721 87.39H137.301L137.241 88.58C137.348 88.5267 137.464 88.49 137.591 88.47C137.718 88.4433 137.848 88.43 137.981 88.43C138.728 88.43 139.284 88.64 139.651 89.06C140.024 89.48 140.211 89.97 140.211 90.53C140.211 91.1833 139.991 91.7167 139.551 92.13C139.111 92.55 138.511 92.76 137.751 92.76C137.378 92.76 136.998 92.6967 136.611 92.57C136.224 92.4433 135.884 92.3 135.591 92.14L136.231 91.23C136.498 91.3767 136.748 91.4867 136.981 91.56C137.214 91.6333 137.481 91.67 137.781 91.67C138.134 91.67 138.431 91.57 138.671 91.37C138.911 91.1633 139.031 90.8833 139.031 90.53C139.031 90.2033 138.934 89.9467 138.741 89.76C138.554 89.5667 138.318 89.47 138.031 89.47C137.798 89.47 137.608 89.5233 137.461 89.63C137.314 89.73 137.218 89.8333 137.171 89.94H136.021ZM141.48 89.94L141.66 86.34H145.32L145.18 87.39H142.76L142.7 88.58C142.807 88.5267 142.923 88.49 143.05 88.47C143.177 88.4433 143.307 88.43 143.44 88.43C144.187 88.43 144.743 88.64 145.11 89.06C145.483 89.48 145.67 89.97 145.67 90.53C145.67 91.1833 145.45 91.7167 145.01 92.13C144.57 92.55 143.97 92.76 143.21 92.76C142.837 92.76 142.457 92.6967 142.07 92.57C141.683 92.4433 141.343 92.3 141.05 92.14L141.69 91.23C141.957 91.3767 142.207 91.4867 142.44 91.56C142.673 91.6333 142.94 91.67 143.24 91.67C143.593 91.67 143.89 91.57 144.13 91.37C144.37 91.1633 144.49 90.8833 144.49 90.53C144.49 90.2033 144.393 89.9467 144.2 89.76C144.013 89.5667 143.777 89.47 143.49 89.47C143.257 89.47 143.067 89.5233 142.92 89.63C142.773 89.73 142.677 89.8333 142.63 89.94H141.48ZM146.929 90.54C147.136 90.54 147.306 90.61 147.439 90.75C147.579 90.89 147.649 91.0633 147.649 91.27C147.649 91.4767 147.579 91.65 147.439 91.79C147.306 91.93 147.136 92 146.929 92C146.722 92 146.546 91.93 146.399 91.79C146.259 91.65 146.189 91.4767 146.189 91.27C146.189 91.0633 146.259 90.89 146.399 90.75C146.546 90.61 146.722 90.54 146.929 90.54ZM152.919 90.15C152.919 90.69 152.712 91.1567 152.299 91.55C151.892 91.9367 151.329 92.13 150.609 92.13C149.875 92.13 149.302 91.9367 148.889 91.55C148.482 91.1567 148.279 90.69 148.279 90.15C148.279 89.81 148.395 89.49 148.629 89.19C148.862 88.89 149.119 88.6933 149.399 88.6C149.145 88.4867 148.939 88.3167 148.779 88.09C148.619 87.8567 148.539 87.6 148.539 87.32C148.539 86.8467 148.722 86.4367 149.089 86.09C149.462 85.7433 149.969 85.57 150.609 85.57C151.242 85.57 151.742 85.7433 152.109 86.09C152.482 86.4367 152.669 86.8467 152.669 87.32C152.669 87.6 152.585 87.8567 152.419 88.09C152.259 88.3167 152.052 88.4867 151.799 88.6C152.079 88.6933 152.335 88.89 152.569 89.19C152.802 89.49 152.919 89.81 152.919 90.15ZM149.699 87.34C149.699 87.56 149.775 87.74 149.929 87.88C150.089 88.0133 150.315 88.1033 150.609 88.15C150.902 88.1033 151.122 88.01 151.269 87.87C151.422 87.73 151.499 87.5467 151.499 87.32C151.499 87.1333 151.412 86.9733 151.239 86.84C151.065 86.7 150.849 86.63 150.589 86.63C150.342 86.63 150.132 86.7 149.959 86.84C149.785 86.98 149.699 87.1467 149.699 87.34ZM149.449 90.17C149.449 90.4567 149.565 90.68 149.799 90.84C150.039 91 150.305 91.08 150.599 91.08C150.885 91.08 151.149 91 151.389 90.84C151.635 90.68 151.759 90.4567 151.759 90.17C151.759 89.93 151.659 89.71 151.459 89.51C151.265 89.31 150.982 89.18 150.609 89.12C150.222 89.18 149.932 89.31 149.739 89.51C149.545 89.71 149.449 89.93 149.449 90.17ZM158.922 91.41H158.002V92.69H156.692V91.41H153.922L153.752 90.34L157.032 86.29H158.002V90.34H159.052L158.922 91.41ZM155.152 90.34H156.692V88.37L155.152 90.34ZM160.22 89.94L160.4 86.34H164.06L163.92 87.39H161.5L161.44 88.58C161.547 88.5267 161.663 88.49 161.79 88.47C161.917 88.4433 162.047 88.43 162.18 88.43C162.927 88.43 163.483 88.64 163.85 89.06C164.223 89.48 164.41 89.97 164.41 90.53C164.41 91.1833 164.19 91.7167 163.75 92.13C163.31 92.55 162.71 92.76 161.95 92.76C161.577 92.76 161.197 92.6967 160.81 92.57C160.423 92.4433 160.083 92.3 159.79 92.14L160.43 91.23C160.697 91.3767 160.947 91.4867 161.18 91.56C161.413 91.6333 161.68 91.67 161.98 91.67C162.333 91.67 162.63 91.57 162.87 91.37C163.11 91.1633 163.23 90.8833 163.23 90.53C163.23 90.2033 163.133 89.9467 162.94 89.76C162.753 89.5667 162.517 89.47 162.23 89.47C161.997 89.47 161.807 89.5233 161.66 89.63C161.513 89.73 161.417 89.8333 161.37 89.94H160.22Z" fill="white"/>
<path d="M2 9H98V7H2V9ZM99 10V106H101V10H99ZM98 107H2V109H98V107ZM1 106V10H-1V106H1ZM2 107C1.44771 107 1 106.552 1 106H-1C-1 107.657 0.343143 109 2 109V107ZM99 106C99 106.552 98.5523 107 98 107V109C99.6569 109 101 107.657 101 106H99ZM98 9C98.5523 9 99 9.44771 99 10H101C101 8.34315 99.6569 7 98 7V9ZM2 7C0.343147 7 -1 8.34314 -1 10H1C1 9.44771 1.44771 9 2 9V7Z" fill="white" fill-opacity="0.1"/>
<rect y="8" width="100" height="100" fill="white"/>
<rect x="1" y="9" width="98" height="98" fill="#FF6600"/>
<path d="M46.8512 36.352C44.8033 35.712 43.1819 35.264 41.9873 35.008C40.7926 34.7093 39.3419 34.56 37.6353 34.56C34.1793 34.56 31.5126 35.968 29.6353 38.784C27.7579 41.6 26.8193 45.4613 26.8193 50.368C26.8193 54.592 27.6086 58.24 29.1873 61.312C30.7659 64.384 33.4113 65.92 37.1233 65.92C38.9579 65.92 40.6646 65.728 42.2433 65.344C43.8646 64.96 45.3366 64.4907 46.6593 63.936L49.7952 70.08C48.1313 70.9333 46.1259 71.616 43.7793 72.128C41.4326 72.64 39.3633 72.896 37.5713 72.896C30.7873 72.896 25.8593 70.72 22.7873 66.368C19.7153 62.016 18.1793 56.704 18.1793 50.432C18.1793 43.7333 19.8646 38.2507 23.2353 33.984C26.6486 29.7173 31.5339 27.584 37.8913 27.584C39.1713 27.584 40.9419 27.7973 43.2033 28.224C45.4646 28.6507 47.5339 29.376 49.4113 30.4L46.8512 36.352ZM62.6448 62.72C62.6448 63.616 63.0074 64.4267 63.7328 65.152C64.4581 65.8347 65.4181 66.176 66.6128 66.176C67.7648 66.176 68.9168 65.92 70.0688 65.408C71.2634 64.896 72.3941 64.128 73.4608 63.104V58.368H67.1888C65.7381 58.368 64.6074 58.816 63.7968 59.712C63.0288 60.608 62.6448 61.6107 62.6448 62.72ZM66.7408 72.768C62.9434 72.768 60.1274 71.8507 58.2928 70.016C56.4581 68.1387 55.5408 65.7067 55.5408 62.72C55.5408 59.52 56.6288 57.0667 58.8048 55.36C60.9808 53.6533 63.8181 52.8 67.3168 52.8H73.3968C73.3541 51.2213 72.8848 50.0053 71.9888 49.152C71.1354 48.256 69.9408 47.808 68.4048 47.808C66.9541 47.808 65.3754 48.0213 63.6688 48.448C61.9621 48.832 60.5328 49.3013 59.3808 49.856L57.1408 42.944C58.3354 42.1333 60.1488 41.472 62.5808 40.96C65.0554 40.4053 66.9541 40.128 68.2768 40.128C71.9888 40.128 75.1674 41.216 77.8128 43.392C80.4581 45.5253 81.7808 48.256 81.7808 51.584V72H77.4928L75.4448 69.376C74.2928 70.272 72.9274 71.0613 71.3488 71.744C69.8128 72.4267 68.2768 72.768 66.7408 72.768Z" fill="white"/>
<path d="M6.0047 13.052C6.9247 13.052 7.5647 13.28 7.9247 13.736C8.2847 14.184 8.4647 14.68 8.4647 15.224C8.4647 15.704 8.3287 16.144 8.0567 16.544C7.7927 16.944 7.3687 17.384 6.7847 17.864L5.6447 18.812H8.6087L8.8127 20H3.5927V18.956L5.9447 16.892C6.3927 16.5 6.6927 16.188 6.8447 15.956C6.9967 15.716 7.0727 15.472 7.0727 15.224C7.0727 14.968 6.9767 14.752 6.7847 14.576C6.5927 14.4 6.3247 14.312 5.9807 14.312C5.6847 14.312 5.3447 14.42 4.9607 14.636C4.5767 14.852 4.3727 14.964 4.3487 14.972L3.6767 13.916C3.9007 13.74 4.2047 13.552 4.5887 13.352C4.9727 13.152 5.4447 13.052 6.0047 13.052ZM9.93845 16.58C9.93845 15.484 10.2345 14.624 10.8265 14C11.4185 13.368 12.1585 13.052 13.0465 13.052C13.9425 13.052 14.6785 13.356 15.2545 13.964C15.8385 14.572 16.1305 15.436 16.1305 16.556C16.1305 17.66 15.8305 18.536 15.2305 19.184C14.6385 19.832 13.9065 20.156 13.0345 20.156C12.1545 20.156 11.4185 19.844 10.8265 19.22C10.2345 18.588 9.93845 17.708 9.93845 16.58ZM11.3665 16.544C11.3665 17.288 11.5305 17.856 11.8585 18.248C12.1945 18.632 12.5905 18.824 13.0465 18.824C13.4865 18.824 13.8745 18.632 14.2105 18.248C14.5545 17.864 14.7265 17.316 14.7265 16.604C14.7265 15.868 14.5585 15.312 14.2225 14.936C13.8945 14.56 13.4985 14.372 13.0345 14.372C12.5865 14.372 12.1945 14.56 11.8585 14.936C11.5305 15.304 11.3665 15.84 11.3665 16.544Z" fill="white"/>
<path d="M93.8248 12.368C94.4381 12.368 94.8648 12.52 95.1048 12.824C95.3448 13.1227 95.4648 13.4533 95.4648 13.816C95.4648 14.136 95.3741 14.4293 95.1928 14.696C95.0168 14.9627 94.7341 15.256 94.3448 15.576L93.5848 16.208H95.5608L95.6968 17H92.2168V16.304L93.7848 14.928C94.0834 14.6667 94.2834 14.4587 94.3848 14.304C94.4861 14.144 94.5368 13.9813 94.5368 13.816C94.5368 13.6453 94.4728 13.5013 94.3448 13.384C94.2168 13.2667 94.0381 13.208 93.8088 13.208C93.6114 13.208 93.3848 13.28 93.1288 13.424C92.8728 13.568 92.7368 13.6427 92.7208 13.648L92.2728 12.944C92.4221 12.8267 92.6248 12.7013 92.8808 12.568C93.1368 12.4347 93.4514 12.368 93.8248 12.368ZM95.8546 24.52C95.8546 24.952 95.6892 25.3253 95.3586 25.64C95.0332 25.9493 94.5826 26.104 94.0066 26.104C93.4199 26.104 92.9612 25.9493 92.6306 25.64C92.3052 25.3253 92.1426 24.952 92.1426 24.52C92.1426 24.248 92.2359 23.992 92.4226 23.752C92.6092 23.512 92.8146 23.3547 93.0386 23.28C92.8359 23.1893 92.6706 23.0533 92.5426 22.872C92.4146 22.6853 92.3506 22.48 92.3506 22.256C92.3506 21.8773 92.4972 21.5493 92.7906 21.272C93.0892 20.9947 93.4946 20.856 94.0066 20.856C94.5132 20.856 94.9132 20.9947 95.2066 21.272C95.5052 21.5493 95.6546 21.8773 95.6546 22.256C95.6546 22.48 95.5879 22.6853 95.4546 22.872C95.3266 23.0533 95.1612 23.1893 94.9586 23.28C95.1826 23.3547 95.3879 23.512 95.5746 23.752C95.7612 23.992 95.8546 24.248 95.8546 24.52ZM93.2786 22.272C93.2786 22.448 93.3399 22.592 93.4626 22.704C93.5906 22.8107 93.7719 22.8827 94.0066 22.92C94.2412 22.8827 94.4172 22.808 94.5346 22.696C94.6572 22.584 94.7186 22.4373 94.7186 22.256C94.7186 22.1067 94.6492 21.9787 94.5106 21.872C94.3719 21.76 94.1986 21.704 93.9906 21.704C93.7932 21.704 93.6252 21.76 93.4866 21.872C93.3479 21.984 93.2786 22.1173 93.2786 22.272ZM93.0786 24.536C93.0786 24.7653 93.1719 24.944 93.3586 25.072C93.5506 25.2 93.7639 25.264 93.9986 25.264C94.2279 25.264 94.4386 25.2 94.6306 25.072C94.8279 24.944 94.9266 24.7653 94.9266 24.536C94.9266 24.344 94.8466 24.168 94.6866 24.008C94.5319 23.848 94.3052 23.744 94.0066 23.696C93.6972 23.744 93.4652 23.848 93.3106 24.008C93.1559 24.168 93.0786 24.344 93.0786 24.536ZM95.8546 33.52C95.8546 33.952 95.6892 34.3253 95.3586 34.64C95.0332 34.9493 94.5826 35.104 94.0066 35.104C93.4199 35.104 92.9612 34.9493 92.6306 34.64C92.3052 34.3253 92.1426 33.952 92.1426 33.52C92.1426 33.248 92.2359 32.992 92.4226 32.752C92.6092 32.512 92.8146 32.3547 93.0386 32.28C92.8359 32.1893 92.6706 32.0533 92.5426 31.872C92.4146 31.6853 92.3506 31.48 92.3506 31.256C92.3506 30.8773 92.4972 30.5493 92.7906 30.272C93.0892 29.9947 93.4946 29.856 94.0066 29.856C94.5132 29.856 94.9132 29.9947 95.2066 30.272C95.5052 30.5493 95.6546 30.8773 95.6546 31.256C95.6546 31.48 95.5879 31.6853 95.4546 31.872C95.3266 32.0533 95.1612 32.1893 94.9586 32.28C95.1826 32.3547 95.3879 32.512 95.5746 32.752C95.7612 32.992 95.8546 33.248 95.8546 33.52ZM93.2786 31.272C93.2786 31.448 93.3399 31.592 93.4626 31.704C93.5906 31.8107 93.7719 31.8827 94.0066 31.92C94.2412 31.8827 94.4172 31.808 94.5346 31.696C94.6572 31.584 94.7186 31.4373 94.7186 31.256C94.7186 31.1067 94.6492 30.9787 94.5106 30.872C94.3719 30.76 94.1986 30.704 93.9906 30.704C93.7932 30.704 93.6252 30.76 93.4866 30.872C93.3479 30.984 93.2786 31.1173 93.2786 31.272ZM93.0786 33.536C93.0786 33.7653 93.1719 33.944 93.3586 34.072C93.5506 34.2 93.7639 34.264 93.9986 34.264C94.2279 34.264 94.4386 34.2 94.6306 34.072C94.8279 33.944 94.9266 33.7653 94.9266 33.536C94.9266 33.344 94.8466 33.168 94.6866 33.008C94.5319 32.848 94.3052 32.744 94.0066 32.696C93.6972 32.744 93.4652 32.848 93.3106 33.008C93.1559 33.168 93.0786 33.344 93.0786 33.536ZM93.8248 39.368C94.4381 39.368 94.8648 39.52 95.1048 39.824C95.3448 40.1227 95.4648 40.4533 95.4648 40.816C95.4648 41.136 95.3741 41.4293 95.1928 41.696C95.0168 41.9627 94.7341 42.256 94.3448 42.576L93.5848 43.208H95.5608L95.6968 44H92.2168V43.304L93.7848 41.928C94.0834 41.6667 94.2834 41.4587 94.3848 41.304C94.4861 41.144 94.5368 40.9813 94.5368 40.816C94.5368 40.6453 94.4728 40.5013 94.3448 40.384C94.2168 40.2667 94.0381 40.208 93.8088 40.208C93.6114 40.208 93.3848 40.28 93.1288 40.424C92.8728 40.568 92.7368 40.6427 92.7208 40.648L92.2728 39.944C92.4221 39.8267 92.6248 39.7013 92.8808 39.568C93.1368 39.4347 93.4514 39.368 93.8248 39.368Z" fill="white"/>
<path d="M42.3678 82.987C42.0798 82.897 41.8518 82.834 41.6838 82.798C41.5158 82.756 41.3118 82.735 41.0718 82.735C40.5858 82.735 40.2108 82.933 39.9468 83.329C39.6828 83.725 39.5508 84.268 39.5508 84.958C39.5508 85.552 39.6618 86.065 39.8838 86.497C40.1058 86.929 40.4778 87.145 40.9998 87.145C41.2578 87.145 41.4978 87.118 41.7198 87.064C41.9478 87.01 42.1548 86.944 42.3408 86.866L42.7818 87.73C42.5478 87.85 42.2658 87.946 41.9358 88.018C41.6058 88.09 41.3148 88.126 41.0628 88.126C40.1088 88.126 39.4158 87.82 38.9838 87.208C38.5518 86.596 38.3358 85.849 38.3358 84.967C38.3358 84.025 38.5728 83.254 39.0468 82.654C39.5268 82.054 40.2138 81.754 41.1078 81.754C41.2878 81.754 41.5368 81.784 41.8548 81.844C42.1728 81.904 42.4638 82.006 42.7278 82.15L42.3678 82.987ZM45.2187 81.223H46.4247L45.5697 82.699H44.6787L45.2187 81.223ZM44.5887 86.695C44.5887 86.821 44.6397 86.935 44.7417 87.037C44.8437 87.133 44.9787 87.181 45.1467 87.181C45.3087 87.181 45.4707 87.145 45.6327 87.073C45.8007 87.001 45.9597 86.893 46.1097 86.749V86.083H45.2277C45.0237 86.083 44.8647 86.146 44.7507 86.272C44.6427 86.398 44.5887 86.539 44.5887 86.695ZM45.1647 88.108C44.6307 88.108 44.2347 87.979 43.9767 87.721C43.7187 87.457 43.5897 87.115 43.5897 86.695C43.5897 86.245 43.7427 85.9 44.0487 85.66C44.3547 85.42 44.7537 85.3 45.2457 85.3H46.1007C46.0947 85.078 46.0287 84.907 45.9027 84.787C45.7827 84.661 45.6147 84.598 45.3987 84.598C45.1947 84.598 44.9727 84.628 44.7327 84.688C44.4927 84.742 44.2917 84.808 44.1297 84.886L43.8147 83.914C43.9827 83.8 44.2377 83.707 44.5797 83.635C44.9277 83.557 45.1947 83.518 45.3807 83.518C45.9027 83.518 46.3497 83.671 46.7217 83.977C47.0937 84.277 47.2797 84.661 47.2797 85.129V88H46.6767L46.3887 87.631C46.2267 87.757 46.0347 87.868 45.8127 87.964C45.5967 88.06 45.3807 88.108 45.1647 88.108ZM49.5803 81.646V88H48.4193V81.745L49.5803 81.646ZM52.826 84.517C52.496 84.517 52.238 84.643 52.052 84.895C51.866 85.141 51.773 85.45 51.773 85.822C51.773 86.2 51.866 86.509 52.052 86.749C52.238 86.989 52.496 87.109 52.826 87.109C53.03 87.109 53.213 87.085 53.375 87.037C53.543 86.983 53.732 86.908 53.942 86.812L54.275 87.658C54.071 87.814 53.822 87.928 53.528 88C53.24 88.072 53.003 88.108 52.817 88.108C52.109 88.108 51.557 87.901 51.161 87.487C50.765 87.073 50.567 86.518 50.567 85.822C50.567 85.126 50.765 84.568 51.161 84.148C51.557 83.728 52.109 83.518 52.817 83.518C53.003 83.518 53.237 83.557 53.519 83.635C53.807 83.713 54.059 83.827 54.275 83.977L53.942 84.814C53.732 84.718 53.543 84.646 53.375 84.598C53.213 84.544 53.03 84.517 52.826 84.517ZM55.7089 81.7C55.8949 81.7 56.0509 81.763 56.1769 81.889C56.3089 82.015 56.3749 82.171 56.3749 82.357C56.3749 82.543 56.3089 82.699 56.1769 82.825C56.0509 82.951 55.8949 83.014 55.7089 83.014C55.5289 83.014 55.3759 82.951 55.2499 82.825C55.1239 82.699 55.0609 82.543 55.0609 82.357C55.0609 82.171 55.1239 82.015 55.2499 81.889C55.3759 81.763 55.5289 81.7 55.7089 81.7ZM56.2939 83.635V88H55.1239V83.635H56.2939ZM59.4427 88.108C58.7527 88.108 58.2127 87.901 57.8227 87.487C57.4387 87.067 57.2467 86.506 57.2467 85.804C57.2467 85.108 57.4477 84.553 57.8497 84.139C58.2577 83.725 58.8127 83.518 59.5147 83.518C60.2407 83.518 60.8017 83.734 61.1977 84.166C61.5997 84.592 61.8007 85.153 61.8007 85.849C61.8007 86.545 61.5847 87.097 61.1527 87.505C60.7207 87.907 60.1507 88.108 59.4427 88.108ZM60.5947 85.849C60.5947 85.435 60.5017 85.111 60.3157 84.877C60.1357 84.637 59.8777 84.517 59.5417 84.517C59.1997 84.517 58.9327 84.622 58.7407 84.832C58.5487 85.042 58.4527 85.363 58.4527 85.795C58.4527 86.227 58.5337 86.554 58.6957 86.776C58.8637 86.998 59.1187 87.109 59.4607 87.109C59.7967 87.109 60.0697 87.01 60.2797 86.812C60.4897 86.608 60.5947 86.287 60.5947 85.849Z" fill="white"/>
<path d="M40.0845 99.41H39.1645V100.69H37.8545V99.41H35.0845L34.9145 98.34L38.1945 94.29H39.1645V98.34H40.2145L40.0845 99.41ZM36.3145 98.34H37.8545V96.37L36.3145 98.34ZM41.0522 97.15C41.0522 96.2367 41.2989 95.52 41.7922 95C42.2856 94.4733 42.9022 94.21 43.6422 94.21C44.3889 94.21 45.0022 94.4633 45.4822 94.97C45.9689 95.4767 46.2122 96.1967 46.2122 97.13C46.2122 98.05 45.9622 98.78 45.4622 99.32C44.9689 99.86 44.3589 100.13 43.6322 100.13C42.8989 100.13 42.2856 99.87 41.7922 99.35C41.2989 98.8233 41.0522 98.09 41.0522 97.15ZM42.2422 97.12C42.2422 97.74 42.3789 98.2133 42.6522 98.54C42.9322 98.86 43.2622 99.02 43.6422 99.02C44.0089 99.02 44.3322 98.86 44.6122 98.54C44.8989 98.22 45.0422 97.7633 45.0422 97.17C45.0422 96.5567 44.9022 96.0933 44.6222 95.78C44.3489 95.4667 44.0189 95.31 43.6322 95.31C43.2589 95.31 42.9322 95.4667 42.6522 95.78C42.3789 96.0867 42.2422 96.5333 42.2422 97.12ZM47.5929 98.54C47.7996 98.54 47.9696 98.61 48.1029 98.75C48.2429 98.89 48.3129 99.0633 48.3129 99.27C48.3129 99.4767 48.2429 99.65 48.1029 99.79C47.9696 99.93 47.7996 100 47.5929 100C47.3863 100 47.2096 99.93 47.0629 99.79C46.9229 99.65 46.8529 99.4767 46.8529 99.27C46.8529 99.0633 46.9229 98.89 47.0629 98.75C47.2096 98.61 47.3863 98.54 47.5929 98.54ZM48.9429 97.15C48.9429 96.2367 49.1895 95.52 49.6829 95C50.1762 94.4733 50.7929 94.21 51.5329 94.21C52.2795 94.21 52.8929 94.4633 53.3729 94.97C53.8595 95.4767 54.1029 96.1967 54.1029 97.13C54.1029 98.05 53.8529 98.78 53.3529 99.32C52.8595 99.86 52.2495 100.13 51.5229 100.13C50.7895 100.13 50.1762 99.87 49.6829 99.35C49.1895 98.8233 48.9429 98.09 48.9429 97.15ZM50.1329 97.12C50.1329 97.74 50.2695 98.2133 50.5429 98.54C50.8229 98.86 51.1529 99.02 51.5329 99.02C51.8995 99.02 52.2229 98.86 52.5029 98.54C52.7895 98.22 52.9329 97.7633 52.9329 97.17C52.9329 96.5567 52.7929 96.0933 52.5129 95.78C52.2395 95.4667 51.9095 95.31 51.5229 95.31C51.1495 95.31 50.8229 95.4667 50.5429 95.78C50.2695 96.0867 50.1329 96.5333 50.1329 97.12ZM55.1336 100.34L57.8736 95.39H55.2236L55.0636 94.34H59.1236L59.5036 94.86L56.3436 100.69L55.1336 100.34ZM64.8719 98.15C64.8719 98.69 64.6652 99.1567 64.2519 99.55C63.8452 99.9367 63.2819 100.13 62.5619 100.13C61.8286 100.13 61.2552 99.9367 60.8419 99.55C60.4352 99.1567 60.2319 98.69 60.2319 98.15C60.2319 97.81 60.3486 97.49 60.5819 97.19C60.8152 96.89 61.0719 96.6933 61.3519 96.6C61.0986 96.4867 60.8919 96.3167 60.7319 96.09C60.5719 95.8567 60.4919 95.6 60.4919 95.32C60.4919 94.8467 60.6752 94.4367 61.0419 94.09C61.4152 93.7433 61.9219 93.57 62.5619 93.57C63.1952 93.57 63.6952 93.7433 64.0619 94.09C64.4352 94.4367 64.6219 94.8467 64.6219 95.32C64.6219 95.6 64.5386 95.8567 64.3719 96.09C64.2119 96.3167 64.0052 96.4867 63.7519 96.6C64.0319 96.6933 64.2886 96.89 64.5219 97.19C64.7552 97.49 64.8719 97.81 64.8719 98.15ZM61.6519 95.34C61.6519 95.56 61.7286 95.74 61.8819 95.88C62.0419 96.0133 62.2686 96.1033 62.5619 96.15C62.8552 96.1033 63.0752 96.01 63.2219 95.87C63.3752 95.73 63.4519 95.5467 63.4519 95.32C63.4519 95.1333 63.3652 94.9733 63.1919 94.84C63.0186 94.7 62.8019 94.63 62.5419 94.63C62.2952 94.63 62.0852 94.7 61.9119 94.84C61.7386 94.98 61.6519 95.1467 61.6519 95.34ZM61.4019 98.17C61.4019 98.4567 61.5186 98.68 61.7519 98.84C61.9919 99 62.2586 99.08 62.5519 99.08C62.8386 99.08 63.1019 99 63.3419 98.84C63.5886 98.68 63.7119 98.4567 63.7119 98.17C63.7119 97.93 63.6119 97.71 63.4119 97.51C63.2186 97.31 62.9352 97.18 62.5619 97.12C62.1752 97.18 61.8852 97.31 61.6919 97.51C61.4986 97.71 61.4019 97.93 61.4019 98.17Z" fill="white"/>
</svg>